<?xml version="1.0" encoding="UTF-8"?><svg xmlns="http://www.w3.org/2000/svg" xmlns:xlink="http://www.w3.org/1999/xlink" height="504.4" preserveAspectRatio="xMidYMid meet" version="1.0" viewBox="0.1 -1.9 333.7 504.4" width="333.7" zoomAndPan="magnify"><g id="change1_1"><path d="M318.3,293.3l15.5-50.3s-3-6.6-6.5-19.1c-1.7,4.2-3.9,9.5-6.4,15.4-8.8,21.1-16.7,38.9-21.6,57.8-2.1,8.1-11.3,31-22.1,57.5-5.8,14.3-11.8,29.2-16.5,41.5-8.4,21.8-19.4,51.8-20.9,55.9-1.7,7.1-4.9,19.2-9,23.9l-2.1,2.4-3.1,.3c-4.9,.5-12.6-1.3-23.7-5.5-9.6-3.7-21.4-9-35-16-1.8-.9-5.8-2.7-14.5-6-26.5-10.1-73.9-25.6-74.4-25.8h-.2c-.2-.1-19.2-6.9-38.3-14.2h0c-8.4-3.2-15.5-6-21.4-8.4-2.1,4.5-4.3,9.7-4.3,12.4,3.4,3.7,17.2,10.9,54.3,20.7,16.6,4.3,88.7,35.7,88.7,35.7,0,0,76.7,31,79.2,28.2,2.5-2.9,11.4-28.2,11.4-28.2,0,0,19.5-54,34.6-88.8,24.5-56.1,36.1-89.5,36.1-89.5Z" fill="#df961a"/></g><g id="change2_1"><path d="M241.2,65.8c-3.6-6.2-2.7-14.1-2.5-15.6,.2-1.2,1.4-8.3,3.1-13.8-3.3,2.1-8.5,5.3-14.4,8.9,0,1-.1,2.1-.2,3.1-1.5,8.1-.4,15.4,2.9,22.1,1.1-.8,2.3-1.7,3.6-2.6,2-1.4,5.3-1.4,8.3-1.1-.3-.4-.6-.7-.8-1Z" fill="#275791"/></g><g id="change2_2"><path d="M324.2,201.8l-19.8,61.5s-11.7,33.4-36.1,89.5c-15.2,34.8-34.6,88.8-34.6,88.8,0,0-9,25.4-11.4,28.2-2.5,2.9-79.2-28.2-79.2-28.2,0,0-72.1-31.4-88.7-35.7-37.1-9.7-50.9-17-54.3-20.7,0-5.4,8.4-20.6,8.4-20.6,0,0,12.9-32.5,21.8-56.2,12.7-34,31-87.8,36.6-98.8,13.5-26.3,29.6-79.1,35.2-92.4,10.8-14.4,43.9-25.4,43.9-25.4,0,0,34.7-22,51-29.6,8.2-3.8,20.4-10.9,30.5-17,0,1-.1,2.1-.2,3.1-1.5,8.1-.4,15.4,2.9,22.1-2.4,1.8-4.1,3.7-5.1,7-1.5,4.8-3.4,9-.9,13.5,2.5,4.5,7.7,9.4,13.9,10.4,6.1,1,12.7,0,14.5-2.4,1.6-2.1,3.6-3.3,5-7.6,.2-.7,.4-1.4,.6-2.3,1.2-5.3,.7-8.2,.2-11,0-.4-.1-.8-.2-1.3-.4-3.2-9.9-8.8-9.9-8.8,0,0-2.8-.8-6.1-1.2-.3-.4-.6-.7-.8-1-3.6-6.2-2.7-14.1-2.5-15.6,.2-1.2,1.4-8.3,3.1-13.8,2.3-1.4,3.6-2.3,3.6-2.3,0,0,15.6-9.1,19.5-2.5,3.9,6.6,8.2,15.2,8.2,15.2l6.8,25.7s.5,1.1,1.3,3c1.1,2.6,2.9,6.9,4.9,12,2.7,6.9,5.9,15.6,8.7,24.3,7.2,22.6,16.9,45.9,19.4,57.4,4.7,21.4,9.9,32.7,9.9,32.7Z" fill="#275791"/></g><g id="change3_1"><path d="M225.9,314.6c-3.4-5.8-26-36.5-30.8-41.5l3.5-9.1,13.8-33.3c8.3,6.6,19.7,17.4,19.7,17.4l15.2-17.7-12.2-21.2-10.6-6.1,9.2-20.2-15.8-10.2-7.4,22.3-7.4-4.3-7.8-.9,11.8-24.6-15.3-5.8-10.9,28.7-25.3-3s-18.9,12.6-22.5,20.7c-3.7,8.2-13.3,39.4,2.8,51.8,3.9,3,8.2,6,12.5,8.9l-11,24.4-13.6,31.9c-10.2-9.4-21.5-19.9-22.2-20.8-1.1-1.5-4.6-5.7-6.3-5.8-1.7,0-23.8,15.3-23.8,15.3l35.2,31.9s2.5,2.3,5.9,5.4l-11.5,26.8,18.2,4.1,7.2-18.9c1.7,1.4,3.2,2.4,4,2.9,1.3,.7,6,1.5,12.2,2.3l-9.7,21.7,12.4,6.8,10.3-27c11.9,1.3,24.3,2.3,27.7,2.2,6.8-.2,34.7-8.2,39.5-19.3,4.8-11.1,6.4-30.2,3-36Zm-25-90.3l-7.3,22.1-8,19.6c-5.6-4-12.6-8.9-17.8-13.4l5.1-13.3,8.8-19.5c6.5,1.4,13.8,2.8,19.3,4.5Zm-46.8,3.5c1.5-7.6,11.1-13,16.1-11.1l-4.3,11.3-6.3,14c-1.7-3.6-6.3-9.7-5.4-14.2Zm-14.2,109.8c-.4-.3-1.6-1.4-3.4-3l6.4-16.7,16.7-44c9,5.7,16,9.7,16,9.7,0,0,.7,.7,1.9,2l-11,27-12.6,28.3c-7.1-1.2-12.9-2.4-14-3.3Zm42.6,6.6c-3.2,0-9.2-.6-15.7-1.4l10-21.8,9.5-25.1c8.1,10.2,17.5,24,14.7,30.5-4.8,11.1-9.6,17.8-18.6,17.7Z" fill="#ffb3b8"/></g><g id="change1_2"><path d="M305.7,42c-1-6.5-5.2-28.2-20.1-36.3-12.3-6.7-25.5-7.6-31.3-2.3-7.9,6.5-14.4,8.9-21.3,22.8-4.3,8.7-5.2,14.2-5.6,19,0,1-.1,2.1-.2,3.1-1.5,8.1-.4,15.4,2.9,22.1,2,4.1,4.8,8,8.3,11.8,7.9,4.5,12.5,6.5,19,9.1,.2-.7,.4-1.4,.6-2.3,1.2-5.3,.7-8.2,.2-11-3.7-1.6-7.3-3.8-12-6.5-1-1.2-3-3.3-4.2-4.8-.3-.4-.6-.7-.8-1-3.6-6.2-2.7-14.1-2.5-15.6,.2-1.2,1.4-8.3,3.1-13.8,.6-2,1.2-3.8,1.9-5.1,2.5-4.8,8.7-12.5,10.3-13.5,5.5-3.4,7.6-5.3,16.7-4.5,6.9,.6,11.1,5,14.4,8.6,5.9,5,9,11.2,9,21.8,.8,12.1-4.1,24.2-12.9,31.8,1.1,2.6,2.9,6.9,4.9,12,4.5-2.8,7.4-6.2,11-12.7,5.6-11.9,10.9-19.7,8.5-32.8Z" fill="#df961a"/></g></svg>