<?xml version="1.0" encoding="UTF-8"?><svg xmlns="http://www.w3.org/2000/svg" xmlns:xlink="http://www.w3.org/1999/xlink" height="500.0" id="Layer_2" preserveAspectRatio="xMidYMid meet" version="1.1" viewBox="-1.5 0.0 440.1 500.0" width="440.1" x="0" xml:space="preserve" y="0" zoomAndPan="magnify"><g><g><g fill="#19055b" id="change1_84"><path d="M402.3936768,498.7562561h-190.531662c-19.3299713,0-35-15.6700439-35-35V36.2438087 c0-19.3299656,15.6700287-35,35-35h190.531662c19.3299561,0,35,15.6700335,35,35v427.5124512 C437.3936768,483.0862122,421.7236328,498.7562561,402.3936768,498.7562561z" fill="inherit"/><path d="M402.567688,500H211.6881104c-19.8888397,0-36.0696564-16.1808167-36.0696564-36.0696411V36.0696526 C175.618454,16.1808147,191.7992706,0,211.6881104,0H402.567688c19.888855,0,36.0696716,16.1808147,36.0696716,36.0696526 v427.8607178C438.6373596,483.8191833,422.456543,500,402.567688,500z M211.6881104,2.4875622 c-18.5172729,0-33.5820923,15.0648136-33.5820923,33.5820923v427.8607178 c0,18.5172729,15.0648193,33.5820923,33.5820923,33.5820923H402.567688 c18.5172729,0,33.5820923-15.0648193,33.5820923-33.5820923V36.0696526 c0-18.5172768-15.0648193-33.5820923-33.5820923-33.5820923H211.6881104z" fill="inherit"/></g><g><g id="change2_1"><path d="M378.3520813,498.7562561h-190.531662c-19.3299713,0-35-15.6700439-35-35V36.2438087 c0-19.3299656,15.6700287-35,35-35h190.531662c19.3299561,0,35,15.6700335,35,35v427.5124512 C413.3520813,483.0862122,397.6820374,498.7562561,378.3520813,498.7562561z" fill="#fff"/></g><g id="change1_41"><path d="M378.5262756,500H187.6462097c-19.8888397,0-36.0696564-16.1808167-36.0696564-36.0696411V36.0696526 C151.5765533,16.1808147,167.75737,0,187.6462097,0h190.8800659c19.888855,0,36.0696716,16.1808147,36.0696716,36.0696526 v427.8607178C414.5959473,483.8191833,398.4151306,500,378.5262756,500z M187.6462097,2.4875622 c-18.5172729,0-33.5820923,15.0648136-33.5820923,33.5820923v427.8607178 c0,18.5172729,15.0648193,33.5820923,33.5820923,33.5820923h190.8800659 c18.5172729,0,33.5820923-15.0648193,33.5820923-33.5820923V36.0696526 c0-18.5172768-15.0648193-33.5820923-33.5820923-33.5820923H187.6462097z" fill="#19055b"/></g></g><g><g id="change2_10"><path d="M413.3521118,36.0697479c0-19.2337971-15.5920715-34.8258705-34.8258667-34.8258705H187.646347 c-19.2337952,0-34.8258667,15.5920744-34.8258667,34.8258705v22.9473686h260.5316162V36.0697479z" fill="#fff"/></g><g id="change1_37"><path d="M413.3521423,60.2607079H152.820343c-0.6869965,0-1.2437897-0.5567856-1.2437897-1.243782V36.0696526 C151.5765533,16.1808147,167.75737,0,187.6462097,0h190.8800659c19.888855,0,36.0696716,16.1808147,36.0696716,36.0696526 v22.9472733C414.5959473,59.7039223,414.0391541,60.2607079,413.3521423,60.2607079z M154.0641174,57.7731476h258.0442505 v-21.703495c0-18.5172768-15.0648193-33.5820923-33.5820923-33.5820923H187.6462097 c-18.5172729,0-33.5820923,15.0648136-33.5820923,33.5820923V57.7731476z" fill="#19055b"/></g></g><g><g id="change2_5"><path d="M152.8204803,440.9828491v22.9473877c0,19.2337952,15.5920715,34.8258667,34.8258667,34.8258667h190.8798981 c19.2337952,0,34.8258667-15.5920715,34.8258667-34.8258667v-22.9473877H152.8204803z" fill="#fff"/></g><g id="change1_33"><path d="M378.5262756,500H187.6462097c-19.8888397,0-36.0696564-16.1808167-36.0696564-36.0696411v-22.9472961 c0-0.6869812,0.5567932-1.2437744,1.2437897-1.2437744h260.5317993c0.6870117,0,1.2438049,0.5567932,1.2438049,1.2437744 v22.9472961C414.5959473,483.8191833,398.4151306,500,378.5262756,500z M154.0641174,442.2268677v21.7034912 c0,18.5172729,15.0648193,33.5820923,33.5820923,33.5820923h190.8800659 c18.5172729,0,33.5820923-15.0648193,33.5820923-33.5820923v-21.7034912H154.0641174z" fill="#19055b"/></g></g><g id="change3_3"><path d="M413.3521118,36.0696793c0-19.2336655-15.5921021-34.8258705-34.8258667-34.8258705h-64.8479004 l-13.3242493,57.7731476h112.9980164V36.0696793z" fill="#7bc9c0"/></g><g id="change3_1"><path d="M378.5262451,498.756012c19.2337646,0,34.8258667-15.59198,34.8258667-34.8258667v-22.9472961H212.2616119 l-13.3241882,57.7731628H378.5262451z" fill="#7bc9c0"/></g><g id="change1_76"><path d="M413.3521423,60.2607079H152.820343c-0.6869965,0-1.2437897-0.5567856-1.2437897-1.243782V36.0696526 C151.5765533,16.1808147,167.75737,0,187.6462097,0h190.8800659c19.888855,0,36.0696716,16.1808147,36.0696716,36.0696526 v22.9472733C414.5959473,59.7039223,414.0391541,60.2607079,413.3521423,60.2607079z M154.0641174,57.7731476h258.0442505 v-21.703495c0-18.5172768-15.0648193-33.5820923-33.5820923-33.5820923H187.6462097 c-18.5172729,0-33.5820923,15.0648136-33.5820923,33.5820923V57.7731476z" fill="#19055b"/></g><g id="change1_48"><path d="M378.5262756,500H187.6462097c-19.8888397,0-36.0696564-16.1808167-36.0696564-36.0696411v-22.9472961 c0-0.6869812,0.5567932-1.2437744,1.2437897-1.2437744h260.5317993c0.6870117,0,1.2438049,0.5567932,1.2438049,1.2437744 v22.9472961C414.5959473,483.8191833,398.4151306,500,378.5262756,500z M154.0641174,442.2268677v21.7034912 c0,18.5172729,15.0648193,33.5820923,33.5820923,33.5820923h190.8800659 c18.5172729,0,33.5820923-15.0648193,33.5820923-33.5820923v-21.7034912H154.0641174z" fill="#19055b"/></g><g><g id="change1_6"><path d="M243.413269,36.4801979c-3.1968994,0-5.7976685-2.6007652-5.7976685-5.7976723 s2.600769-5.7976723,5.7976685-5.7976723c3.1964264,0,5.7971954,2.6007652,5.7971954,5.7976723 S246.6096954,36.4801979,243.413269,36.4801979z M243.413269,27.3724155c-1.8253479,0-3.3101044,1.4847641-3.3101044,3.3101101 c0,1.8253441,1.4847565,3.3101082,3.3101044,3.3101082c1.8248596,0,3.3096313-1.4847641,3.3096313-3.3101082 C246.7229004,28.8571796,245.2381287,27.3724155,243.413269,27.3724155z" fill="#19055b"/></g><g id="change1_16"><path d="M283.0859985,488.606781c-10.3316345,0-18.7373657-8.4057312-18.7373657-18.7373657 c0-10.331665,8.4057312-18.7373657,18.7373657-18.7373657c10.3321228,0,18.737854,8.4057007,18.737854,18.7373657 C301.8238525,480.2010498,293.4181213,488.606781,283.0859985,488.606781z M283.0859985,453.6195984 c-8.960083,0-16.2497864,7.2897339-16.2497864,16.2498169s7.2897034,16.2497864,16.2497864,16.2497864 c8.9605713,0,16.2503052-7.2897034,16.2503052-16.2497864S292.0465698,453.6195984,283.0859985,453.6195984z" fill="#19055b"/></g><g id="change1_3"><path d="M327.3131104,31.9263058h-68.4448853c-0.6869812,0-1.2437744-0.5567856-1.2437744-1.2437801 s0.5567932-1.243782,1.2437744-1.243782h68.4448853c0.6869812,0,1.2437744,0.5567875,1.2437744,1.243782 S328.0000916,31.9263058,327.3131104,31.9263058z" fill="#19055b"/></g></g></g><g id="change1_43"><path d="M413.3521423,442.2268677H152.820343c-0.6869965,0-1.2437897-0.5567932-1.2437897-1.2438049V59.0169258 c0-0.6869926,0.5567932-1.2437782,1.2437897-1.2437782h260.5317993c0.6870117,0,1.2438049,0.5567856,1.2438049,1.2437782 v381.9661255C414.5959473,441.6700745,414.0391541,442.2268677,413.3521423,442.2268677z M154.0641174,439.7392883h258.0442505 V60.2607079H154.0641174V439.7392883z" fill="#19055b"/></g><g><g id="change4_5"><path d="M50.9679031,460.4662476c3.1427803,0.0046692,9.5886116,1.0759277,10.1482582,7.4193115 c0.3434906,3.8933411,0.4337044,10.4013367,1.8761482,15.520874c1.2974472,4.6049194,3.8904877,14.7716675-11.4274483,15.3503113 c-4.5350952,0.1712952-14.1891708-1.2016602-13.04776-12.6213684c0,0,1.1834831-11.7460632,0.5969543-15.6061401 C38.5300941,466.6860352,36.0410881,460.4440308,50.9679031,460.4662476z" fill="#ec8f3c"/></g><g fill="#19055b" id="change1_86"><path d="M61.3837242,471.7287598c-0.0927963-1.4282837-0.1705322-2.7426453-0.2674599-3.8432007 c-0.5597038-6.3434143-7.0055008-7.4147339-10.1484756-7.419342 c-12.7711067-0.0189514-12.7929688,4.5468445-12.1671944,8.2732239 C42.7134056,470.3656921,50.2511559,472.5389099,61.3837242,471.7287598z" fill="inherit"/><path d="M56.5895805,472.9016113c-8.4256439,0-14.428833-1.6878662-18.1708641-3.2435608 c-0.3162918-0.1311646-0.5426979-0.4163818-0.5995407-0.7540283c-0.3357239-2.0007324-0.467392-4.2958984,1.1057968-6.1523438 c1.8700447-2.2072449,5.7845535-3.2804871,11.964592-3.2804871c0.026722,0,0.0529594,0,0.0796814,0 c5.0300255,0.007782,10.5974007,2.1994629,11.1381569,8.3270264c0.0791931,0.8983459,0.1457558,1.9380493,0.2181473,3.0662231 l0.0514984,0.7997131c0.0354691,0.5455933-0.3755646,1.0173645-0.9206886,1.0571899 C59.7524757,472.8452454,58.130703,472.9016113,56.5895805,472.9016113z M39.6979637,468.0289917 c3.5442924,1.3948975,10.5021782,3.3601685,20.6292763,2.7717896c-0.0660782-1.0368042-0.1287498-1.993927-0.2021141-2.8276672 c-0.5320091-6.0299072-7.1449394-6.5089417-9.1587982-6.5118713c-5.5353088,0.0136108-9.0674553,0.8585205-10.5230675,2.5769653 C39.5546379,465.0866699,39.4739876,466.401886,39.6979637,468.0289917z" fill="inherit"/></g><g id="change4_15"><path d="M96.1469879,456.1170044c-0.269577,5.5354309,0.6685028,11.4998474,12.1665421,17.8518372 c3.5526505,1.962616,11.2715759,5.6705017,7.8457108,14.2132263c-1.6281891,4.0600586-9.280777,5.4501648-17.2833099,2.7289429 c-3.5690002-1.2135925-7.6036072-5.2097778-11.9391251-9.2101746 c-2.8909531-2.6674805-4.8746643-4.5275574-12.0528336-10.1143188c-3.2230835-2.5085144-8.683815-2.173645-3.8565292-15.8752136 c1.0748215-3.0507202,2.4580078-14.2119446,6.6821518-13.1000977 C77.7095947,442.6112061,96.385788,451.2136536,96.1469879,456.1170044z" fill="#ec8f3c"/></g><g fill="#19055b" id="change1_88"><path d="M96.1469193,456.1170044c0.2388-4.9033508-18.437355-13.5058289-18.437355-13.5058289 c-3.149292-0.8288879-4.7190781,5.1626587-5.7595291,9.5302124c-0.0898819,1.4727478-0.1493988,2.6255493-0.1858368,3.3848267 c3.1191635,2.8031006,10.2794113,7.0419312,25.5567856,8.1847839 C96.1580963,461.0985718,96.0276413,458.5652161,96.1469193,456.1170044z" fill="inherit"/><path d="M97.3209839,464.7062683c-0.0247803,0-0.0495605-0.0009766-0.0743408-0.0029297 c-15.109993-1.1305847-22.5590744-5.2122192-26.1475754-8.4373169c-0.2225266-0.1996765-0.3430176-0.4892273-0.3289261-0.7875671 c0.0369263-0.7618103,0.0966873-1.9190979,0.1870499-3.3975525c0.0034027-0.0573425,0.0116653-0.1141663,0.0252686-0.1695557 c1.0120316-4.2492676,2.1945953-8.5145569,4.5252228-9.9108887c0.7564774-0.4533081,1.6047745-0.5757446,2.4550095-0.3517761 c0.0558777,0.0150757,0.1107788,0.0345154,0.1632462,0.0588074c3.2207184,1.4833069,19.273262,9.1519775,19.0152817,14.4579773 l0,0c-0.1025162,2.0915833-0.0529633,4.5757446,1.0887909,7.1410522 c0.1423569,0.3201599,0.1063995,0.6913757-0.0952301,0.9775391 C97.9472427,464.5498047,97.6431046,464.7062683,97.3209839,464.7062683z M72.7815704,455.0932007 c2.8587494,2.4151611,9.4162979,6.2373657,23.0517349,7.4952393c-0.748703-2.3753357-0.7734756-4.6005554-0.6801987-6.5201416 l0,0c0.1413879-2.9058838-10.2757645-9.0485229-17.771492-12.5126343 c-0.305603-0.0641479-0.5713577-0.0160522-0.8512115,0.1515808c-1.7859879,1.070343-2.9986801,6.0891724-3.592392,8.5811157 C72.8685379,453.4335022,72.8175201,454.3804321,72.7815704,455.0932007z M96.1471634,456.1168823h0.0097198H96.1471634z" fill="inherit"/></g><g id="change5_2"><path d="M110.5307999,285.1351624c0,0,15.1869736,77.4391785,10.7452087,99.3470764 c-3.5890045,17.7018738-22.0442657,74.598999-22.0442657,74.598999s-20.6168823,1.8918457-27.9509201-7.3183289 c0,0,0.9563522-24.7929077,4.9823074-38.5637207c1.385994-4.7407532,3.2406235-12.4507751,9.0396271-17.5675659 c0,0-4.6050873-4.605072-0.3411179-8.8690491L64.15345,286.3213196L110.5307999,285.1351624z" fill="#f6bd3b"/></g><g id="change5_4"><path d="M29.7333126,285.561554c0,0,0.9666805,41.1047668,2.3878269,63.2738647 c0.6305122,9.8356628,1.1485519,17.2268982,1.3857613,39.3991089c0.1730804,16.1777344-0.5116463,57.4059753,3.752327,77.1908264 c0,0,19.5603981,5.4578857,30.6467323-0.8528137l4.9248886-58.4293213c0,0,2.5583801-23.3665771,3.4111786-39.2285461 l7.675148-82.2059326L29.7333126,285.561554z" fill="#f6bd3b"/></g><g id="change4_16"><path d="M69.9559402,194.7888184h0.0000305c7.2025452,0,13.0413589-5.8388214,13.0413589-13.0413666v-30.910614 c0-1.0425873-0.8451843-1.8877716-1.8877716-1.8877716h-22.307209c-1.0425873,0-1.8877716,0.8451843-1.8877716,1.8877716 v30.910614C56.9145775,188.9499969,62.7533951,194.7888184,69.9559402,194.7888184z" fill="#ec8f3c"/></g><g id="change4_13"><path d="M72.7312546,179.6963959h0.0000381c10.2731018,0.1403198,18.7148514-8.0739136,18.8551712-18.3470154 l0.1243591-13.8944855c0.1403198-10.2731018-8.0739212-18.714859-18.347023-18.8551788h-0.0000381 c-10.2731018-0.1403198-18.7148476,8.0739288-18.8551674,18.3470306l-0.1243591,13.8944855 C54.2439156,171.1143341,62.4581566,179.556076,72.7312546,179.6963959z" fill="#ec8f3c"/></g><g><g id="change4_1"><ellipse cx="88.656" cy="159.169" fill="#ec8f3c" rx="6.472" ry="6.986" transform="rotate(-89.217 88.656 159.17)"/></g></g><g id="change1_90"><path d="M77.4131927,163.7879944c-0.5995407,0-1.2777863-0.2069702-2.0289154-0.6213989 c-0.3609848-0.1992035-0.4921646-0.6529846-0.2929688-1.0139771c0.2001724-0.3600159,0.6549301-0.4907074,1.0139771-0.2929688 c0.543663,0.2997742,1.2807007,0.6009979,1.7024231,0.3308563c1.0440979-0.668045,0.7953415-4.1656952,0.6758194-5.8467407 c-0.0393524-0.5519257-0.071907-1.0207672-0.071907-1.3458099c0-0.4120026,0.3342667-0.7462616,0.7462692-0.7462616 s0.7462692,0.334259,0.7462692,0.7462616c0,0.2992859,0.0315781,0.7312164,0.0680161,1.2398987 c0.1719971,2.4146881,0.4314423,6.0639191-1.3603821,7.2100372 C78.2566376,163.6747894,77.8562927,163.7879944,77.4131927,163.7879944z" fill="#19055b"/></g><g id="change1_34"><ellipse cx="83.26" cy="156.232" fill="#19055b" rx="1.64" ry="1.171" transform="rotate(-87.981 83.26 156.232)"/></g><g id="change1_67"><ellipse cx="70.464" cy="155.781" fill="#19055b" rx="1.64" ry="1.171" transform="rotate(-87.981 70.464 155.78)"/></g><g id="change1_57"><path d="M72.6192932,149.6953735c-0.2696457,0-0.5295792-0.1462402-0.6626968-0.4022827 c-0.4396973-0.8463593-1.2612762-1.3783722-2.1970291-1.4230652c-0.9313736-0.0417786-1.8029938,0.4071503-2.3223724,1.2078247 c-0.2244644,0.3468933-0.6874771,0.4445496-1.0319443,0.2205811c-0.345932-0.2239838-0.4445572-0.6860199-0.2205811-1.0319519 c0.7992249-1.2330933,2.2009125-1.9550629,3.6458359-1.8870544c1.4507523,0.0690002,2.7732391,0.9216614,3.4505234,2.2256927 c0.1899643,0.3658447,0.0476074,0.8162384-0.3182373,1.0061951 C72.8529892,149.6686554,72.7354126,149.6953735,72.6192932,149.6953735z" fill="#19055b"/></g><g id="change1_78"><path d="M76.9482346,170.1249542c-0.1734467,0-0.3478699-0.008255-0.5222931-0.0252533 c-1.2821579-0.1263275-2.4754105-0.7151794-3.3606339-1.6582184c-0.28228-0.3002625-0.2672195-0.772995,0.0335236-1.0547791 c0.2997665-0.281311,0.7725067-0.2672272,1.0547867,0.0335236c0.6374359,0.6792145,1.4964218,1.103363,2.4180832,1.1937408 c1.1466141,0.1190338,2.2742767-0.2949219,3.0977936-1.1179504c0.2915115-0.2905426,0.7642441-0.2910309,1.0557556,0.0004883 c0.2910233,0.2919922,0.2910233,0.7642365-0.0004883,1.0557556 C79.708847,169.5667114,78.355751,170.1249542,76.9482346,170.1249542z" fill="#19055b"/></g><g id="change1_17"><path d="M86.7619629,150.3697357c-0.269165,0-0.5295792-0.1462402-0.6627045-0.4017944 c-0.4401855-0.8468475-1.2617569-1.3788605-2.1970215-1.4235535c-0.938179-0.0461578-1.8039703,0.406662-2.3218842,1.2073364 c-0.2244644,0.3464203-0.6869965,0.4440765-1.0319519,0.2215576c-0.3464127-0.2239838-0.4450455-0.6860199-0.22155-1.0319519 c0.7987442-1.2335815,2.2013931-1.9589539,3.6463165-1.8875427c1.4502716,0.0690002,2.7722778,0.9216614,3.4505234,2.2252045 c0.1899719,0.3658447,0.0476151,0.8162384-0.317749,1.0066833 C86.9956589,150.3425293,86.8780823,150.3697357,86.7619629,150.3697357z" fill="#19055b"/></g><g id="change1_45"><path d="M77.6296463,164.3334656c-1.1048279-0.2494049-2.4286957,0.5450592-4.2821732,1.7169495 c-1.2813492,0.8101501-2.7269516,1.6896973-5.6882553,0.7358398c0,0,3.328598,4.8886566,9.5230331,0.5751648 C78.6735535,166.3229523,78.7161636,164.5787506,77.6296463,164.3334656z" fill="#19055b"/></g><g id="change1_5"><path d="M76.8200836,164.3334656c1.1048203-0.2494049,2.428688,0.5450592,4.2821655,1.7169495 c1.2813568,0.8101501,2.7269592,1.6896973,5.6882553,0.7358398c0,0-3.328598,4.8886566-9.5230331,0.5751648 C75.7761688,166.3229523,75.7335587,164.5787506,76.8200836,164.3334656z" fill="#19055b"/></g><g id="change4_6"><path d="M135.3902435,198.9979553c0,0,2.3197479-15.0091858,17.5335236-22.05896v11.02948 c0,0,3.6157837-3.1048126,6.5721436-2.8426514c1.5919647,0.1411743,3.1983032,1.6448364,0.5685272,6.3675385 c-2.3915405,4.2948456-5.1167755,7.0497589-7.7320099,18.0792389l-15.577713-3.2185059L135.3902435,198.9979553z" fill="#ec8f3c"/></g><g id="change1_51"><path d="M84.6259003,129.8460388c0,0,4.1613617-4.3324203,8.2997818,3.1860657 c2.7472153,4.9910278,0.5892792,21.541748,0.5892792,21.541748l-1.8262405,1.9233551l0.0528564-10.0858154 c0,0-6.6257324-3.6576996-7.2569504-10.7890015c0,0-0.2616577,5.4273071-6.7504349,6.1329193 c-2.5379028,0.2759857-7.6277695,0.7217407-10.1784286,0.8599091c-2.8419266,0.1539612-8.44244,0.2699738-8.6792831,6.913208 c-0.0597115,1.6749268,0,6.7034302,0,6.7034302l-10.0786858,1.4806671c0,0-0.1214676-12.9908752,0.0555687-15.7949677 c0.3081093-4.880249,2.2526894-10.9157715,11.0136604-16.2076797 C64.8138046,122.7218628,78.3136902,116.4391785,84.6259003,129.8460388z" fill="#19055b"/></g><g><g id="change4_2"><ellipse cx="54.419" cy="158.287" fill="#ec8f3c" rx="6.472" ry="6.986" transform="rotate(-89.217 54.42 158.287)"/></g><g id="change1_28"><path d="M54.4357986,161.234848c-0.00243,0-0.0053444,0-0.0077744,0 c-1.0241737-0.0136108-1.9230003-0.36586-2.5803604-0.9921112c-0.4129715-0.3930664-0.9022255-1.0591583-0.8900795-2.001709 c0.0233192-1.627121,1.5566711-2.9010315,3.4908447-2.9010315c0.4120026,0,0.7462692,0.3342743,0.7462692,0.7462769 s-0.3337784,0.7462616-0.7457809,0.7462616c-1.0907402,0-1.9876213,0.6408386-1.9987946,1.428894 c-0.0043755,0.3235779,0.1394386,0.6267548,0.4265747,0.9007721c0.3843117,0.3658447,0.9250641,0.5713654,1.5226631,0.5796204 c0.4115143,0.0058289,0.7642441,0.3439789,0.7593842,0.7554932 C55.1538887,160.9064026,54.843914,161.234848,54.4357986,161.234848z" fill="#19055b"/></g></g><g id="change2_6"><path d="M116.0844803,480.4373779c0,2.449585-5.0272217,7.0121155-14.3658905,4.3334961 c-3.7970352-1.0890503-7.1739044-2.5559998-13.0761108-8.8691406 c-7.2599564-7.7652283-16.8064499-11.0064392-19.0949173-15.087677c-1.8104172,8.5534058,2.5789032,8.6263428,5.33638,10.7723694 c7.1782074,5.586792,9.1618195,7.4469299,12.0528946,10.1144714c4.3355408,4.0003357,8.3700943,7.9964905,11.9390869,9.2101135 c8.0024185,2.7212219,15.655014,1.3310852,17.2832108-2.7289734c1.2912827-3.2194824,0.9984741-5.751709-0.0565796-7.7631836 L116.0844803,480.4373779z" fill="#fff"/></g><g id="change2_9"><path d="M63.6546097,486.1975708c0,0-1.0477409,7.4934082-6.006546,5.1682434 c-2.4192734-1.1343384-4.4956055-2.5093079-10.6882515,0.0261536c-2.4612236,1.0077209-7.3692551,0.3182983-8.3253479-6.4992371 c-0.0701332,0.7735596-0.117466,1.2426758-0.117466,1.2426758c-1.1413269,11.4197388,8.5127373,12.7926636,13.0479279,12.6212769 c12.6886368-0.4793091,13.0857925-7.5356445,12.111412-12.5619202L63.6546097,486.1975708z" fill="#fff"/></g><g fill="#19055b" id="change1_81"><path d="M77.6734695 351.5826416L78.2926712 337.5708008 89.242012 329.163147 80.7586441 339.5911255 78.8775787 357.3948669" fill="inherit"/><path d="M78.8785248,358.389679c-0.0349808,0-0.0699615-0.0019226-0.1054306-0.0053406 c-0.5465851-0.0578003-0.9430389-0.5475464-0.8852234-1.0941162l0.5339508-5.0519104 c-0.1928787,0.2191162-0.4965363,0.349823-0.7919388,0.3381653c-0.5490112-0.024292-0.974617-0.4887695-0.950325-1.0377808 l0.6189804-14.0114746c0.0131149-0.2939453,0.1549835-0.5665283,0.3881912-0.7453003l10.949646-8.4076843 c0.4013138-0.3085022,0.9673309-0.2657471,1.3190918,0.0952454c0.3522415,0.3619385,0.3770218,0.9299011,0.0587845,1.3215027 l-8.2968903,10.1985168l-1.8501282,17.509613C79.8133087,358.0102539,79.3813858,358.389679,78.8785248,358.389679z M79.2662354,338.0776672l-0.4683609,10.6022644l0.9712219-9.1932678c0.020401-0.191925,0.0961914-0.3736267,0.217659-0.5232849 l3.1186829-3.833374L79.2662354,338.0776672z" fill="inherit"/></g><g fill="#19055b" id="change1_55"><path d="M112.9298553,298.1150818c-0.3528366-1.9862976-0.6798477-3.7949524-0.9715805-5.3873596 c-12.1615448,9.038208-45.3076019,11.5001831-66.4108734,6.4133606c1.5782814,1.9674683,3.2538071,3.9784241,5.0119476,6.0278625 C83.6791611,310.3209839,105.1479568,301.9942932,112.9298553,298.1150818z" fill="inherit"/><path d="M71.0752563,307.7964783c-6.286438,0-13.1835938-0.4800415-20.6691132-1.6441345 c-0.2341805-0.036438-0.4479561-0.1554871-0.6019707-0.3357239c-1.8166008-2.1173401-3.5097961-4.1535339-5.0329437-6.0532227 c-0.2662468-0.3318481-0.2915077-0.7963257-0.0636444-1.1558533c0.2278633-0.358551,0.6588135-0.5310364,1.073246-0.4338684 c21.7885208,5.2515869,54.2750092,2.1596069,65.5837021-6.2446594c0.2764511-0.2040405,0.6393814-0.2521362,0.9580994-0.1272888 c0.3201752,0.1263428,0.5524139,0.4085999,0.6141205,0.7467651c0.2924805,1.5935974,0.6199417,3.4043579,0.9726715,5.3924561 c0.0772552,0.4343567-0.140892,0.8677368-0.535408,1.0645142 C107.3285599,302.0191956,92.8836975,307.7964783,71.0752563,307.7964783z M51.075161,304.2419739 c31.7698631,4.8590088,52.6313744-2.7854004,60.7436409-6.6906738c-0.1967697-1.1053162-0.3852768-2.1508484-0.5631027-3.1308289 c-13.2273178,8.4946289-43.2607422,10.2883911-63.1359749,6.3053894 C49.0579033,301.8627625,50.045639,303.0385132,51.075161,304.2419739z" fill="inherit"/></g><g><g id="change5_14"><path d="M62.17202,309.0941772c-1.2073441-0.1068726-2.4341202-0.2337036-3.6774139-0.3775024 c-0.5077171-0.0583191-0.8881378-0.4916992-0.8808517-1.0028076l0.1093178-7.4456787 c0.0043716-0.2808228,0.1268082-0.5465698,0.3376694-0.7321777c0.1826782-0.1608276,0.4163742-0.2482605,0.6573563-0.2482605 c0.0369263,0,0.074337,0.0019226,0.1117477,0.0063171c1.1903343,0.1345825,2.3996201,0.2467957,3.6195946,0.3454285 c0.5227776,0.0417786,0.9231186,0.4819641,0.9153481,1.0061951l-0.1102905,7.4719238 c-0.0043716,0.2764587-0.1234055,0.5388184-0.328434,0.7243958c-0.1836548,0.1651917-0.4212341,0.2560425-0.6665916,0.2560425 C62.23032,309.098053,62.2011719,309.0966187,62.17202,309.0941772z" fill="#f6bd3b"/></g><g id="change1_79"><path d="M58.7180977,300.2827148c1.2010269,0.1355896,2.4210014,0.2494202,3.6516647,0.3483582 l-0.1105309,7.4718323c-1.1983566-0.105896-2.4163857-0.2322388-3.6504517-0.3745728L58.7180977,300.2827148 M58.7180977,298.2926636c-0.4814796,0-0.9498405,0.1748352-1.3149567,0.4962769 c-0.4214783,0.3711548-0.6665916,0.9030151-0.6748505,1.4645386l-0.1093178,7.4455872 c-0.0150604,1.0219727,0.7465134,1.8890991,1.7616997,2.0061951c1.2955246,0.1493835,2.5414925,0.2772827,3.7034073,0.3799438 c0.0585442,0.0052185,0.1170921,0.0077515,0.1751518,0.0077515c0.4904671,0,0.9658737-0.1812134,1.3329315-0.5123291 c0.4107895-0.3704529,0.648613-0.8951721,0.6568756-1.4483032l0.110527-7.4718018 c0.0155487-1.0484619-0.7851334-1.9290771-1.8304443-2.0131226c-1.3020859-0.1046448-2.4756584-0.2165833-3.5877762-0.3421631 C58.8667679,298.2967834,58.7921906,298.2926636,58.7180977,298.2926636L58.7180977,298.2926636z" fill="#19055b"/></g></g><g><g id="change5_3"><path d="M100.4377213,305.713623c-0.1880264,0-0.3741074-0.0534363-0.5358963-0.1564331 c-0.2448654-0.1564636-0.4090881-0.4125061-0.4494095-0.7001343l-0.978508-6.97052 c-0.0680161-0.484375,0.2259216-0.9464417,0.6937943-1.0897522c1.2170639-0.3731384,2.3884506-0.7759094,3.4816208-1.196167 c0.1151428-0.0447083,0.2361221-0.0665588,0.3571014-0.0665588c0.1753922,0,0.3498077,0.0461426,0.5047989,0.1374817 c0.2613907,0.1540222,0.4387207,0.4188232,0.4805069,0.7195435l0.9838486,7.0230103 c0.0655899,0.4683533-0.2079468,0.9187317-0.6539536,1.0761414c-1.220459,0.4309692-2.396225,0.8171997-3.5953064,1.1806335 C100.6315765,305.6995239,100.5344086,305.713623,100.4377213,305.713623z" fill="#f6bd3b"/></g><g id="change1_35"><path d="M103.0066681,296.5288391l0.9838486,7.023468 c-1.1062851,0.3903809-2.2854462,0.7818604-3.5530396,1.1665344l-0.9782639-6.9709473 C100.6978989,297.3679504,101.8826447,296.9615479,103.0066681,296.5288391 M103.0066681,294.5387878 c-0.2417145,0-0.4839096,0.0439758-0.7149353,0.1328735c-1.0676575,0.4109802-2.2169418,0.8058472-3.4160233,1.173645 c-0.9350204,0.2868347-1.5231476,1.2106018-1.387352,2.1791687l0.978508,6.9709473 c0.0806503,0.5758362,0.4093246,1.0875549,0.8995514,1.4005737c0.3230896,0.2064819,0.6954956,0.3128967,1.0710602,0.3128967 c0.1938553,0,0.388443-0.0283203,0.5779266-0.0857544c1.2168121-0.3692627,2.406662-0.7598877,3.6373291-1.1942139 c0.8927536-0.3149719,1.4398193-1.2152405,1.3086395-2.15271l-0.9838486-7.023468 c-0.0842972-0.6011353-0.4382401-1.1309509-0.9612579-1.4388428 C103.7065353,294.6315308,103.3574524,294.5387878,103.0066681,294.5387878L103.0066681,294.5387878z" fill="#19055b"/></g></g><g><g><g id="change5_1"><path d="M77.2261429,309.4367065c-2.4389801-0.0247803-4.4042511-1.9638062-4.4742126-4.4139709 l-0.109314-3.8430786c-0.0714188-2.4827271,1.8957977-4.5762634,4.3848114-4.6671143 c3.0982819-0.1131897,6.1941299-0.4217224,9.2020416-0.9172668c0.2516708-0.0413208,0.5009079-0.0612183,0.7467499-0.0612183 c2.3835907,0,4.3716965,1.8661499,4.5271683,4.248291l0.2361298,3.637085 c0.1433258,2.2023621-1.308403,4.1841431-3.4514923,4.711792c-4.393074,1.0805359-8.2138138,1.3074341-10.6455078,1.3074341 C77.6420364,309.4386597,77.2261429,309.4367065,77.2261429,309.4367065z M77.6478653,304.8055725 c2.0629272,0,5.2574005-0.1841431,8.9581375-1.0372925c-1.393425,0.2205505-3.0730133,0.4474487-4.7739792,0.5878601 c-0.0272141,0.0024414-0.1272964,0.0063171-0.1545029,0.0063171c-0.9687881,0-1.7898788-0.7564697-1.869072-1.7223511 c-0.0412979-0.4994507,0.1146622-0.9848022,0.4387207-1.3671875c0.1073761-0.1263123,0.2283554-0.2366028,0.3609924-0.3289185 c-1.1082306,0.0889282-2.2198639,0.1545105-3.3314896,0.1962891l0.1049423,3.6638184L77.6478653,304.8055725z" fill="#f6bd3b"/></g><g id="change1_1"><path d="M86.9762192,296.5288391c1.8340912,0,3.4106827,1.4217834,3.533844,3.3183594l0.2366104,3.6369019 c0.1112595,1.716095-1.027092,3.2697144-2.6967163,3.6806335c-4.1890182,1.0308533-7.8506393,1.2792664-10.4079208,1.2792664 c-0.1384735,0-0.2737808-0.0007324-0.4056931-0.0020752c-1.8999176-0.0198059-3.4356995-1.5485229-3.4898682-3.4478455 l-0.1095657-3.8426208c-0.0556259-1.9494629,1.4782104-3.5733643,3.4269562-3.6446228 c3.7704544-0.1377869,7.0052567-0.5472412,9.3271484-0.9298401 C86.588028,296.5444946,86.7833405,296.5288391,86.9762192,296.5288391 M77.641304,305.8004761 c2.2307892,0,5.7374268-0.2086792,9.7770462-1.2027283c0.4285202-0.1054382,0.7185745-0.5016479,0.6901474-0.9418335 l-0.0740891-1.1375122c-1.4495392,0.2596436-3.8443069,0.6448059-6.2837677,0.8461914 c-0.0245361,0.0021667-0.0490723,0.0030212-0.0731201,0.0030212c-0.4540329,0-0.8395538-0.3485413-0.877449-0.8089294 c-0.0398407-0.4849548,0.3206635-0.9104919,0.8060303-0.9505005c2.4579239-0.2029724,4.9231339-0.6092224,6.3131561-0.8611755 l-0.0473709-0.7287292c-0.0344925-0.5296936-0.4824524-0.8459167-0.8959122-0.8459167 c-0.0512543,0-0.1027527,0.004303-0.1549835,0.0128479c-3.1585236,0.5206604-6.4088745,0.8446655-9.6601944,0.9634705 c-0.499939,0.0180359-0.8954239,0.4345703-0.8815765,0.9276733l0.1100464,3.8424072 c0.0138397,0.4884033,0.3981552,0.8747864,0.8742905,0.8795166L77.641304,305.8004761 M86.9762192,294.5387878 c-0.302681,0-0.608284,0.0251465-0.908783,0.074646c-2.0383911,0.335907-5.2676086,0.7655029-9.0762024,0.9046936 c-3.0329285,0.1108398-5.4298782,2.6634521-5.3436432,5.6901245l0.1095581,3.8425293 c0.0852661,2.9864197,2.4829483,5.3500977,5.4585495,5.381073l0.4263382,0.0021667 c2.4865875,0,6.3930817-0.2318726,10.8833237-1.3369141c2.6119385-0.6427917,4.3811722-3.0574951,4.2072372-5.7417603 l-0.2366104-3.6373291C92.3074722,296.8139038,89.8828278,294.5387878,86.9762192,294.5387878L86.9762192,294.5387878z M78.2991486,302.0912781c0.1795197-0.0089722,0.3595276-0.0185852,0.5390549-0.0287781 c-0.0318298,0.2138367-0.0398407,0.4346008-0.0213776,0.6591187c0.0310898,0.3783569,0.1365204,0.7357178,0.3009796,1.0579529 c-0.2681885,0.0110474-0.5249634,0.0187073-0.7695847,0.0236816L78.2991486,302.0912781L78.2991486,302.0912781z" fill="#19055b"/></g></g></g><g id="change2_7"><path d="M110.1476364,253.3050995c-3.8723373-28.2975769-2.3880768-53.9984894-7.7322006-59.7091522 c-2.2794266-2.4357758-9.5662842-5.482193-14.9859238-7.5152435l-4.4321365-8.3814545 c-0.5262375,3.1377258-5.2845306,6.4537048-5.2845306,6.4537048l-2.5246887,6.6403656l-3.8090897-6.8592377 c-10.0858536-1.0216064-14.4644241-8.4795837-14.4644241-8.4795837l-6.5712929,8.8382721c0,0.0000458,0,0.0000458,0,0.0000916 c-6.3477631,2.1544647-14.4824944,5.2180786-17.7431831,7.7463837 c-12.6438904,9.8031158-1.2785892,29.8860474-2.8669815,58.3470154 c-0.9195175,16.480957-6.650898,33.9021301-0.0894985,41.0880432c12.9014149,14.1296997,69.7343826,13.2745972,83.8216553,0 C120.4002228,284.9394226,112.3166962,269.1579895,110.1476364,253.3050995z" fill="#fff"/></g><g id="change2_4"><path d="M135.3902435,197.968277c-5.8274384,18.5909271-9.3136597,28.2308502-12.5645142,28.3980713 c-5.6038818,0.288269-7.8457108-22.2037659-20.1828079-32.6051941 c-1.8471603-1.5573425-8.1509552-5.4254913-13.6022186-2.2121277 c-5.3617706,3.1613007-7.1718674,11.9958191-4.7406464,17.6858215 c3.1295547,7.3243561,16.6372757,43.6249847,39.4505768,44.2938538 c19.2457199,0.5642548,25.2843246-27.9582977,30.4833755-50.3288269 C139.2158203,205.4851074,135.3902435,197.968277,135.3902435,197.968277z M84.346962,209.3178864 c0.0387192,0.0701447,0.0748672,0.1308136,0.1049881,0.1824493C84.4218292,209.4487,84.3856812,209.388031,84.346962,209.3178864 z" fill="#fff"/></g><g id="change2_2"><path d="M46.489296,327.0662842c-3.3729935,0-6.7137184-1.3033447-8.9757195-3.805603 c-23.6311874-26.1423035-34.8512688-46.5715332-36.380928-66.2414246 c-1.5877473-20.4182587,10.9451866-47.3283539,29.7407093-63.4263 c3.4944973-2.9929657,23.7150669,10.6525574,10.3683376,27.0614319 c-29.789608,36.6242676-4.7582092,62.593811,12.8911438,86.2980957c3.5058861,4.7086487,4.4302216,14.4649963-0.5227737,17.9263 C51.502964,326.3512268,48.9870949,327.0662842,46.489296,327.0662842z" fill="#fff"/></g><g id="change5_15"><path d="M35.606926,324.0165405c0,0,13.0773163-5.7642517,19.4872208-18.2161255 c0,0-0.2259598,0.7276001,0.2968979,1.3709412c2.6074753,3.2082214,10.3289337,13.1006165,2.5474052,20.9618225 C53.9447441,332.1677856,42.4924583,335.0692444,35.606926,324.0165405z" fill="#f6bd3b"/></g><g id="change1_53"><path d="M35.6075745,325.0116577c-0.3818779,0-0.7462654-0.2210693-0.9104843-0.5932312 c-0.2220345-0.5023499,0.0058289-1.0897522,0.5082016-1.3122864c0.1277771-0.0563354,12.83815-5.7825928,19.0041008-17.7608032 c0.2506981-0.4887695,0.8512115-0.6791992,1.3399773-0.4294739c0.4887695,0.2516479,0.6811676,0.8516846,0.429493,1.3399658 c-6.4963264,12.6199951-19.4233894,18.4302979-19.970459,18.6712952 C35.8777084,324.9844666,35.7416725,325.0116577,35.6075745,325.0116577z" fill="#19055b"/></g><g id="change1_66"><path d="M80.5231323,302.3573608c-0.2560425,0-0.5115967-0.0981445-0.7064285-0.2939453 c-0.386734-0.3901367-0.3843079-1.0202942,0.0053482-1.4075012c4.8463745-4.8089905,2.2966232-25.8031311-0.1695633-46.105423 c-0.9158325-7.5438232-1.8632431-15.3441772-2.4705582-22.5279846 c-1.429863-16.9207764-2.9714737-40.9252625-2.9870148-41.1657562c-0.0349808-0.5485229,0.3809052-1.0217438,0.9294357-1.0567322 c0.5597-0.0335236,1.0217438,0.3813934,1.0567245,0.9294434c0.0150604,0.2404938,1.5556946,24.2250671,2.9841003,41.1259155 c0.60392,7.1468811,1.5488968,14.9292603,2.4627838,22.4551086c2.7542953,22.6776123,5.1330261,42.2627869-0.4037399,47.7582703 C81.0298767,302.2611694,80.7767487,302.3573608,80.5231323,302.3573608z" fill="#19055b"/></g><g id="change1_12"><path d="M91.1215134,166.2201691c-0.2409821,0-0.4775925-0.0874481-0.6631927-0.2531281 c-0.2696457-0.2409821-0.3872223-0.6092529-0.3070602-0.9619904c0.2754822-1.2160797,0.4236679-2.4506378,0.4401855-3.6691589 l0.0714188-8.0082855c0.0029144-0.3352509,0.1744232-0.6466675,0.4562149-0.8278961 c0.28228-0.1821899,0.635498-0.2093964,0.9425507-0.072876c2.818428,1.2515564,4.6141434,3.9407349,4.5747833,6.8514862l0,0 c-0.0422668,3.100708-2.0784683,5.8039856-5.1879272,6.8864594 C91.3420868,166.2021942,91.2313156,166.2201691,91.1215134,166.2201691z M92.6373672,155.0956116l-0.0558701,6.2626343 c-0.0092316,0.6860199-0.0558777,1.3749695-0.1384659,2.062439c1.3550339-1.0013428,2.1809845-2.509903,2.2033386-4.1695709 C94.6682281,157.6526489,93.9117584,156.1392212,92.6373672,155.0956116z M95.6413879,159.2647095h0.0097198H95.6413879z" fill="#19055b"/></g><g id="change1_19"><path d="M72.9895172,180.6932068c-0.0908585,0-0.1812286-0.0009613-0.2720795-0.0019379 c-8.9110107-0.1219482-16.6758995-6.359314-18.7689476-14.9506378c-1.9779053-0.1102905-3.8187981-0.8925018-5.2175674-2.2242279 c-1.5051689-1.4337463-2.3194542-3.3295441-2.2917633-5.3385468c0.0515022-3.7760315,3.1264572-6.8786926,7.0390244-7.3062439 l0.0354691-3.9334564c0.0714188-5.2394257,2.1771011-10.132431,5.9288521-13.7831268 c3.7517471-3.6506958,8.7025757-5.6193695,13.9347229-5.5503769c5.2345657,0.0714188,10.1275787,2.1771011,13.7782745,5.9288559 c3.6506882,3.7517395,5.621788,8.7006378,5.5503693,13.9347229l-0.1243744,13.8900146 C92.4347687,172.0771179,83.6714554,180.6927338,72.9895172,180.6932068z M54.747715,163.7500916 c0.4722481,0,0.882309,0.333786,0.9755898,0.8006897c1.6101151,8.0865173,8.7686615,14.0377197,17.0213394,14.1504364 c9.6864319,0.1156311,17.7136765-7.6570282,17.8468018-17.3653259l0.1243744-13.8900146 c0.0641327-4.707428-1.7067947-9.1539459-4.9867783-12.524292c-3.2799911-3.3708496-7.6759796-5.2627563-12.3790283-5.326889 c-4.7307358-0.0991058-9.149559,1.7068024-12.5194321,4.9867859c-3.370842,3.2799988-5.2627487,7.6759796-5.3268814,12.3790283 l-0.0437241,4.8648376c-0.0048599,0.5490112-0.4732208,0.9537201-1.0028,0.9862823 c-3.3237152,0.0038757-5.9866676,2.3932953-6.0279655,5.3934326c-0.0199203,1.448822,0.5747643,2.823288,1.6742439,3.8703003 c1.1203766,1.0669403,2.6265182,1.6664734,4.2410049,1.6883392c0.0845375-0.0034027,0.1666451-0.0034027,0.2502136-0.007782 l0.1107712-0.0048523C54.7195358,163.7505798,54.7336273,163.7500916,54.747715,163.7500916z" fill="#19055b"/></g><g id="change1_24"><path d="M54.1335983,410.0318604c-0.0111732,0-0.0223503,0-0.0335236-0.0004883 c-0.5494995-0.0184631-0.9799652-0.4785461-0.9615021-1.0275574c0.4630165-13.8458252,3.773613-62.5753174,3.8071365-63.0660095 c0.0369263-0.5480652,0.5203476-0.973175,1.0601311-0.9250793c0.5485268,0.0374146,0.962471,0.512085,0.9250603,1.0601196 c-0.0330391,0.4902344-3.3412056,49.18573-3.8032494,62.9970398 C55.1096764,409.6082153,54.6680374,410.0318604,54.1335983,410.0318604z" fill="#19055b"/></g><g id="change1_68"><path d="M46.4425621,424.0875549c-0.3284378,0-0.5276375-0.0145569-0.5767059-0.0184326 c-0.5475578-0.04422-0.9556732-0.5247498-0.9109726-1.0722961c0.0442123-0.5465698,0.5227776-0.9522705,1.0703316-0.911438 c0.120491,0.0116577,8.0656281,0.4853516,15.5686417-7.5331421c0.376049-0.4013062,1.0057106-0.4217224,1.4060555-0.0466614 c0.4013138,0.3750916,0.4222031,1.0047607,0.0466423,1.4060669 C55.9433975,423.5035706,48.546299,424.0875549,46.4425621,424.0875549z" fill="#19055b"/></g><g id="change1_50"><path d="M85.3034363,396.6267395c-0.2949142,0-0.5864258-0.1302185-0.7827148-0.3804321 c-0.3396072-0.4319153-0.2647858-1.0577087,0.1676254-1.3968201l2.7985077-2.1989746 c0.4324036-0.3400879,1.0572128-0.2652588,1.3968201,0.1676331c0.3396149,0.4319153,0.2647934,1.0576782-0.1676178,1.3968201 l-2.7985077,2.1989746C85.7353516,396.557251,85.5186615,396.6267395,85.3034363,396.6267395z" fill="#19055b"/></g><g id="change1_71"><path d="M84.960907,387.7575073c-0.2312622,0-0.463501-0.0801697-0.6520157-0.2434082 c-0.414917-0.3605042-0.4591293-0.9887085-0.0991135-1.4041138l2.2067413-2.5419922 c0.3595276-0.4154053,0.9882202-0.4595947,1.4041138-0.0991211c0.414917,0.3605042,0.4591293,0.9887085,0.0991135,1.4041138 l-2.2067413,2.5419922C85.5162354,387.6413879,85.2393036,387.7575073,84.960907,387.7575073z" fill="#19055b"/></g><g id="change1_58"><path d="M52.4544945,468.5940552c-0.0087471,0-0.0174904,0-0.0262375-0.0004883 c-0.5494995-0.0140991-0.9833641-0.471283-0.9687881-1.0207825c0.0082588-0.3216248,0.8468399-32.3582458,1.2952805-45.7789307 c0.0184631-0.5494995,0.4882813-0.9755859,1.0275764-0.9614868c0.5494995,0.0184631,0.9799652,0.4785461,0.9615021,1.0275574 c-0.4484406,13.4139099-1.2865372,45.4432068-1.2952805,45.7648315 C53.4344559,468.1655273,52.991848,468.5940552,52.4544945,468.5940552z" fill="#19055b"/></g><g id="change1_27"><path d="M53.6467743,468.6275635c-8.4601402,0.0004883-16.1463203-2.1018066-16.6545181-2.2436523 c-0.3561325-0.0996094-0.6277237-0.3877258-0.7054596-0.7487183c-3.6293144-16.8381653-3.6953888-49.0540466-3.734745-68.3025208 c-0.0072861-3.5102844-0.0136032-6.596405-0.0403252-9.0873718c-0.2283478-21.3740845-0.709343-28.8552246-1.3181152-38.3269348 l-0.0655899-1.0193176c-0.5116024-7.9825439-1.0202904-19.2547913-1.5124569-33.5033569 c-0.0140896-0.4158936,0.2317505-0.796814,0.6160603-0.9547119c0.3877087-0.1583862,0.8274059-0.0602417,1.1096859,0.2453613 c0.0179768,0.0194397,0.0519848,0.0592651,0.068018,0.0801697c0.4144325,0.4892273,0.8575287,1.0095825,1.3040276,1.530426 l3.4655838,3.9786377c0.4911957,0.5543518,0.986763,1.1101685,1.4891357,1.6694031 c2.9204559-1.5445251,7.8125-4.6617737,11.9636192-9.8768921c1.3477516-1.574646,2.5162277-3.1794128,3.4961891-4.7982788 c-1.3963394-1.8714905-2.8368874-3.756134-4.2910423-5.6592102l-0.901741-1.1801453 c-0.2507019-0.3289185-0.2725639-0.7783203-0.0539322-1.1291199c0.2176628-0.3512573,0.6248055-0.532959,1.0363235-0.451355 c22.0027809,4.3139038,51.7689857,1.0154419,62.4470406-6.9209595c0.2764511-0.2040405,0.6393814-0.2531128,0.9585876-0.1268005 c0.3196869,0.1258545,0.5519257,0.4081116,0.6136322,0.7462769c3.9956436,21.8084412,12.9008255,74.4432068,9.31427,92.1316223 c-3.5588684,17.553833-21.8881226,74.1385803-22.0727463,74.7080078c-0.1229172,0.378479-0.4591293,0.647644-0.8555832,0.6835938 c-0.8633575,0.0791931-21.2390213,1.831665-28.8202515-7.6890869c-0.148674-0.1865845-0.2249527-0.4202881-0.2157211-0.6583557 c0.0388641-1.0173645,1.0066833-25.0733337,5.0212784-38.8045044l0.3211517-1.1135559 c1.3079147-4.5679932,3.2552032-11.3689575,8.3022385-16.260498c-0.4251251-0.5640869-0.9619904-1.3987732-1.3322067-2.4069214 c-0.6301498-1.7155457-0.8886261-4.2303162,1.2831345-6.6809387l-5.8355713-28.1682434l-0.813797,8.7176514 c-0.8419876,15.6687012-3.3873596,39.0100098-3.4131165,39.2442017l-4.9221649,58.4047546 c-0.0276947,0.3269653-0.2142563,0.6189575-0.4994507,0.78125 C64.1392365,467.8618774,58.7516212,468.6275635,53.6467743,468.6275635z M38.1058273,464.6168518 c3.2352867,0.8070068,19.2416801,4.4125061,28.853775-0.65979l4.8794174-57.897522 c0.0281754-0.2579956,2.5677261-23.5458374,3.4097061-39.1980591l1.4342346-15.3713684 c0.0456696-0.4907227,0.4435806-0.8735657,0.9352646-0.9012451c0.502861-0.0301514,0.929924,0.3089905,1.0295181,0.7919312 l7.2877808,35.1800537c0.0680237,0.3279419-0.0335236,0.6680298-0.2706146,0.9051514 c-3.4383774,3.4388428-0.0534439,7.0623169,0.3434982,7.4641418c0.1923904,0.1948242,0.2973404,0.4610596,0.2881088,0.7345886 s-0.1302109,0.5320129-0.3352432,0.7132263c-5.1441956,4.5383606-7.0370789,11.1488647-8.4188385,15.9757996 l-0.3240662,1.1247559c-3.6778946,12.5791931-4.7856445,34.7850342-4.9270248,37.9460144 c6.3782654,7.4942627,22.7354431,6.9248352,26.200058,6.7115479c2.0396042-6.315094,18.4764633-57.4136047,21.8094101-73.8514404 c3.4383698-16.9581909-4.9532623-67.3410339-9.0451126-89.8641663 c-12.6462402,8.1205444-40.6036224,10.0692749-60.1819954,6.8398438c1.3083992,1.712616,2.6012497,3.4111633,3.8571777,5.0980225 c0.048584,0.0656128,0.0957146,0.1375122,0.1423531,0.2098999c0.22155,0.3167725,0.294426,0.8167114,0.1005745,1.1514587 c-1.1038589,1.9098816-2.4525833,3.7988892-4.0082817,5.6149902 c-4.7035332,5.9108887-10.3394165,9.2647095-13.2783356,10.7353821c-0.400341,0.2006531-0.8847351,0.1088562-1.184021-0.2225037 c-0.682621-0.7559814-1.3516388-1.5056458-2.0133705-2.2519226l-2.9850731-3.4179688 c0.4601021,12.8881836,0.9338074,23.1707458,1.4094582,30.5940857l0.0651016,1.0188293 c0.6107178,9.5013428,1.0931664,17.0062866,1.3224907,38.4333191c0.026722,2.4958191,0.0330391,5.5873108,0.0403252,9.1044006 C34.5809708,416.2711792,34.6455879,447.8233948,38.1058273,464.6168518z" fill="#19055b"/></g><g id="change1_49"><path d="M50.8696442,499.7648621c-2.5667572,0-7.4490814-0.4887695-10.6095505-3.8513489 c-2.2315178-2.3739014-3.1512337-5.697113-2.7334023-9.8773804c0.0116615-0.1170959,1.1650734-11.6653137,0.6034279-15.3572998 c-0.046154-0.3065796-0.1054306-0.6282043-0.1661606-0.9610291c-0.2278633-1.2471619-0.4858513-2.6605225-0.2929688-4.0758057 c0.0378952-0.2778931,0.1909409-0.5271301,0.4222031-0.6860046c0.2317543-0.1593628,0.5203476-0.2137756,0.7914543-0.1481934 c3.7881889,0.8920288,13.5081444,2.7941284,21.9099808,1.2053833c0.5407524-0.101532,1.0586739,0.2507019,1.162159,0.7885437 c0.0621872,0.322113,0.1200066,0.6466675,0.1506157,0.9964905c0.0782204,0.8862,0.1433258,1.9069824,0.2142601,3.015686 c0.2404976,3.7692261,0.5402679,8.4606323,1.6285744,12.3221741c0.7321815,2.5983276,2.2548409,8.004425-0.6529846,11.9990845 c-2.0731316,2.848053-6.0075607,4.4008484-11.6949425,4.6160889 C51.3875618,499.7590027,51.1412354,499.7648621,50.8696442,499.7648621z M39.6003075,467.0091858 c0.0335236,0.7744446,0.1787949,1.5717468,0.3211479,2.3510437c0.0646172,0.3532104,0.1268082,0.6947632,0.1763649,1.0198059 c0.598568,3.9388123-0.5422096,15.3704224-0.5907974,15.8547974c-0.3580704,3.5816956,0.3828545,6.3797302,2.2028542,8.3153687 c2.9360046,3.1240234,7.8440819,3.2926025,9.8176117,3.2119751c5.0465431-0.1904602,8.4650002-1.4682617,10.1611099-3.7979126 c2.3393784-3.2139282,0.9930801-7.9917908,0.3464088-10.2883911c-1.1456375-4.0646667-1.4526939-8.8721619-1.6995087-12.7356567 c-0.0651054-1.0198059-0.1248627-1.9638062-0.1953125-2.795105 C52.3971634,469.3558655,43.9103012,467.9420166,39.6003075,467.0091858z" fill="#19055b"/></g><g id="change1_59"><path d="M106.9019852,493.2957153c-2.6036835,0-5.472641-0.4649353-8.3464508-1.4424744 c-3.3956223-1.1548767-7.0604019-4.5606995-10.9409027-8.1671753l-1.5950546-1.4779663 c-2.7887878-2.5735474-4.8036194-4.4329224-11.7469254-9.8365479c-0.4931412-0.3838196-1.06353-0.7035217-1.6669617-1.041687 c-3.8498917-2.1571655-6.4793243-4.7010803-2.516716-15.9495544c0.2186356-0.6199341,0.4649658-1.6620789,0.7506485-2.868927 l0.0694733-0.2939453c0.085022-0.357605,0.3600159-0.6398621,0.7156601-0.7331543 c0.3561325-0.092804,0.7336349,0.0174866,0.9833679,0.2871399c5.6907806,6.1562195,18.3627701,6.5696716,23.5516739,6.4603577 c0.5213165,0.0223694,0.9668427,0.3867493,1.0120239,0.9090271c0.3206635,3.6856995,1.9317474,8.6029968,11.6225586,13.9570923 l0.511116,0.2798462c3.6919861,2.013855,11.3747635,6.2048035,7.7770309,15.1746216 C115.8572083,491.6073914,111.8610764,493.2957153,106.9019852,493.2957153z M72.4424438,454.3590698 c-0.1656723,0.6685181-0.3216324,1.2442627-0.4761353,1.6829834 c-3.7216263,10.5628967-1.1310654,12.0146484,1.6120605,13.5518799c0.6413193,0.3595276,1.3049927,0.7312012,1.916687,1.2073364 c7.0088959,5.4546509,9.0494766,7.3378296,11.8742218,9.9444275l1.6003952,1.4828186 c3.7201691,3.4573059,7.2338486,6.7227173,10.2262115,7.7405701c7.9888611,2.7164001,14.7422104,1.0771484,16.0394287-2.1571655 c2.9394073-7.329071-3.209053-10.6829224-6.882576-12.6870422l-0.5203476-0.284729 c-7.7935486-4.3060913-11.7022324-8.8424988-12.536438-14.6056824 C88.8418961,460.2893677,78.4951859,459.4760437,72.4424438,454.3590698z" fill="#19055b"/></g><g id="change1_89"><path d="M106.9019852,493.2957153c-2.6036835,0-5.472641-0.4649353-8.3464508-1.4424744 c-3.3956223-1.1548767-7.0604019-4.5606995-10.9409027-8.1671753l-1.5950546-1.4779663 c-2.7887878-2.5735474-4.8036194-4.4329224-11.7469254-9.8365479c-0.4921722-0.3833618-1.0611038-0.7025452-1.6630707-1.0407104 c-2.5108871-1.4094543-5.6353989-3.1643372-4.0354919-10.7227478c0.0859985-0.4057007,0.4139481-0.7151794,0.8240051-0.7778625 c0.4052048-0.0578003,0.8142929,0.1355591,1.0173798,0.4970398c0.9717026,1.7330322,3.7099609,3.4830627,6.8806305,5.509552 c3.652153,2.3345337,8.1972961,5.2399292,12.0734253,9.3852234c5.8826981,6.2927551,9.069397,7.5729675,12.6234055,8.5922852 c6.5774612,1.8870544,10.2058029-0.1107788,11.460762-1.0557556c1.1300888-0.8517151,1.6358643-1.7796936,1.6358643-2.3214111 c0-0.2594299,0.101059-0.5082092,0.28228-0.6942749l0.0179749-0.0184631 c0.2220383-0.2288513,0.5388107-0.3362122,0.8560715-0.2905273c0.3153152,0.0461426,0.5898285,0.2404785,0.7380066,0.5227661 c1.3336639,2.5419617,1.3667068,5.4342651,0.0986328,8.5957031 C115.8572083,491.6073914,111.8610764,493.2957153,106.9019852,493.2957153z M70.1764297,463.1709595 c-0.4207458,4.2755127,1.3725357,5.282196,3.40728,6.4248962c0.6398697,0.3590698,1.3011093,0.7302551,1.9113464,1.2054138 c7.0088959,5.4546509,9.0494766,7.3378296,11.8742218,9.9444275l1.6003952,1.4828186 c3.7201691,3.4573059,7.2338486,6.7227173,10.2262115,7.7405701c7.9888611,2.7164001,14.7422104,1.0771484,16.0394287-2.1571655 c0.6845703-1.7063293,0.9231186-3.258606,0.7171173-4.6923523c-0.3590393,0.4324036-0.7963104,0.8478088-1.3011093,1.2282104 c-1.4935074,1.1252441-5.7690048,3.5127258-13.2073975,1.3798218c-3.7211456-1.0679016-7.3077011-2.4928894-13.5280685-9.1461487 c-3.705101-3.9631042-8.1331558-6.7931824-11.6915359-9.0679321 C73.7489014,465.9315796,71.6373901,464.5818787,70.1764297,463.1709595z" fill="#19055b"/></g><g id="change1_13"><path d="M50.8696442,499.7648621c-2.5667572,0-7.4490814-0.4887695-10.6095505-3.8513489 c-2.2315178-2.3739014-3.1512337-5.697113-2.7334023-9.8773804c0.0004845-0.004364,0.0476151-0.4683533,0.1166039-1.232605 c0.0456696-0.5038452,0.4615593-0.8930054,0.9668465-0.9051514c0.4955673-0.0140991,0.9396362,0.3561401,1.0096016,0.8565674 c0.3668175,2.6148376,1.40168,4.4805298,2.9923592,5.3939209c1.4614449,0.8395386,3.0526085,0.6986694,3.970871,0.3226013 c6.2023849-2.5390625,8.6564255-1.3623352,11.0312691-0.2239685l0.4562149,0.2176514 c0.9051437,0.4236755,1.6504402,0.4659424,2.2796173,0.1253662c1.4871941-0.8031311,2.1785583-3.5438232,2.319458-4.5320435 c0.0641327-0.4484253,0.4226913-0.7987366,0.8730736-0.849762l0.0213776-0.0024109 c0.5159798-0.056366,0.9901695,0.2890625,1.089283,0.7992249c0.7793045,4.0189514,0.2672195,7.0953674-1.56493,9.4046326 c-2.1207428,2.6726685-5.984726,4.1331482-11.4860268,4.341095 C51.3875618,499.7590027,51.1412354,499.7648621,50.8696442,499.7648621z M39.5925331,490.0881348 c0.3051147,1.7932739,1.012516,3.2867737,2.1173439,4.4620667c2.9360046,3.1240234,7.8440819,3.2926025,9.8176117,3.2119751 c4.8935013-0.1846313,8.2589989-1.3924561,10.0017471-3.5889893c0.7214928-0.9095154,1.1786766-1.997345,1.3744774-3.2824402 c-0.4280357,0.58255-0.9551849,1.0970764-1.6028252,1.4483337c-0.831295,0.4489441-2.2116013,0.8021545-4.0748405-0.0723877 l-0.4727364-0.2249451c-2.1625252-1.0372925-4.0286827-1.933197-9.4162979,0.2710876 c-1.3973083,0.5728455-3.6331978,0.7579346-5.7165337-0.4382324 C40.9738121,491.503418,40.2513504,490.9398193,39.5925331,490.0881348z" fill="#19055b"/></g><g id="change1_75"><path d="M75.1875076,191.7881317c-0.3590469,0-0.6933136-0.1943359-0.8691864-0.512085l-3.5603256-6.4108276 c-10.0989189-1.253006-14.5153122-8.5903473-14.7013969-8.9071198c-0.0898819-0.1530457-0.1370087-0.3264923-0.1370087-0.50383 v-5.0261383c0-0.4498901,0.3017159-0.8434448,0.7355804-0.9605255c0.4353218-0.1190338,0.8929939,0.0709381,1.1194038,0.4600983 c3.1483192,5.4089966,8.7448502,8.6889801,14.9700699,8.7735138c3.4330292,0.0296326,6.8077621-0.9114532,9.7165527-2.7732391 c0.305603-0.1953125,0.6957397-0.2089233,1.0139771-0.0349884c0.3192062,0.1749115,0.5174332,0.5096588,0.5174332,0.8730774 v0.9333191c0,0.0553894-0.0043793,0.1102905-0.0136032,0.1647034c-0.5237503,3.120636-4.3328323,6.1105652-5.4425201,6.9229126 l-2.4185715,6.3598022c-0.1374969,0.3619537-0.4722443,0.6112061-0.8584976,0.6389008 C75.235611,191.7871552,75.211319,191.7881317,75.1875076,191.7881317z M57.9096413,175.1671295 c0.8026276,1.2190094,4.9814377,6.9073639,13.5693626,7.7765503c0.3240585,0.0330353,0.6116867,0.2225189,0.7695847,0.5072327 l2.7703323,4.9877472l1.764122-4.639389c0.0709381-0.1865692,0.1967773-0.3478699,0.3605042-0.4625397 c1.0212631-0.7132263,3.4539261-2.7105713,4.4601212-4.6447449c-2.7562332,1.3555298-5.7918396,2.0225983-8.8862305,1.9992828 c-5.8365402-0.0796814-11.1750832-2.6799622-14.8077965-7.0939178V175.1671295z" fill="#19055b"/></g><g id="change1_23"><path d="M109.0115509,400.9901733c-0.3099747,0-0.6155701-0.1443176-0.8099136-0.4154053 c-0.3196945-0.446991-0.2171783-1.0683899,0.2293243-1.3885803c0.0864792-0.0617065,8.6476746-6.2397766,11.1823654-11.7007751 c0.2312698-0.4994507,0.8225479-0.7142029,1.3215179-0.4838867c0.4984818,0.2317505,0.7151718,0.8230286,0.4839096,1.3215027 c-2.7562408,5.9375916-11.4597931,12.2167664-11.8285522,12.4810486 C109.4143219,400.9299316,109.2122116,400.9901733,109.0115509,400.9901733z" fill="#19055b"/></g><g id="change1_18"><path d="M148.7513275,192.5674438c-0.2793579,0-0.556778-0.1166077-0.7535553-0.3444824 c-0.3590393-0.4158783-0.3133698-1.0445709,0.1025085-1.4036255l4.1729889-3.6040497 c0.4154053-0.3595276,1.0440979-0.3133698,1.4036255,0.1025238c0.3590546,0.4158783,0.3133698,1.0445709-0.1025085,1.4036255 l-4.1729889,3.6040497C149.2133789,192.4877625,148.9816284,192.5674438,148.7513275,192.5674438z" fill="#19055b"/></g><g id="change1_83"><path d="M148.9092255,204.6209412c-9.8472443,0-13.4935608-4.760376-14.1995087-5.8540344 c-0.1452637-0.2244568-0.1938477-0.4980011-0.1350555-0.7584076c0.8069916-3.5792847,4.4844055-15.7416077,17.9308472-21.9721832 c0.3090057-0.1423492,0.668045-0.1180573,0.9537201,0.0641327c0.2866669,0.1826935,0.4596252,0.4989777,0.4596252,0.8385925 v9.0703583c1.4526978-0.9391479,3.6458282-2.0580597,5.6650391-1.8748932l0,0 c1.1087036,0.0986176,2.0162811,0.6675568,2.4899902,1.5620117c0.7622986,1.4395752,0.378952,3.5530396-1.1403046,6.2806091 c-0.4766235,0.8565521-0.9663544,1.6543274-1.4662933,2.4671478c-1.428894,2.3248138-2.9058838,4.7283173-4.3901672,9.0898132 c-0.1199951,0.3522491-0.4265747,0.6082916-0.7948456,0.6631927 C152.3140869,204.4921875,150.5276031,204.6209412,148.9092255,204.6209412z M136.6162109,198.0211182 c1.1636047,1.5343323,5.4915771,5.8132324,16.7774353,4.2929993c1.4876709-4.2084503,2.9559174-6.5978699,4.378006-8.9119873 c0.4848785-0.7885437,0.9605408-1.5620117,1.4235535-2.3928223c1.5916443-2.8582611,1.3132629-4.0160522,1.1198883-4.3814087 c-0.1977386-0.3731384-0.6019745-0.4839172-0.9070892-0.5111237l0,0 c-2.0716705-0.1821899-4.9163361,1.8200073-5.8365326,2.6070862c-0.2954102,0.2531281-0.7098389,0.3104553-1.0635376,0.1481781 c-0.3527222-0.1627502-0.5791321-0.5154877-0.5791321-0.9036713v-9.4294281 C140.9213409,184.3118439,137.5155182,194.3689728,136.6162109,198.0211182z" fill="#19055b"/></g><g id="change1_7"><path d="M60.6848259,192.5679169c-0.1287498,0-0.2599297-0.0252533-0.3862534-0.0787048 c-7.446167-3.14151-10.6275253-7.4296417-10.7596779-7.6108704c-0.3230896-0.4440613-0.2254333-1.0664368,0.21912-1.3900146 c0.4430962-0.3231049,1.0654755-0.2249603,1.3885651,0.2166901l0,0c0.0291519,0.0403137,3.0273438,4.0403442,9.9254723,6.950592 c0.5062561,0.2137756,0.7438393,0.797287,0.5300636,1.3035431 C61.4417839,192.3390808,61.0730209,192.5679169,60.6848259,192.5679169z" fill="#19055b"/></g><g id="change1_46"><path d="M83.3017197,192.5674438c-0.309967,0-0.6150894-0.1443024-0.8094254-0.4149323 c-0.3201752-0.4469757-0.2181473-1.0683746,0.2283478-1.3885651c2.835434-2.0337677,3.7473755-4.9411011,3.7561264-4.9702606 c0.1598434-0.524231,0.7122574-0.8210907,1.2394028-0.6641541c0.5247192,0.1583862,0.8235245,0.7098236,0.6670761,1.2350311 c-0.0432434,0.1447906-1.0941391,3.571991-4.502388,6.0163116 C83.7049789,192.5066986,83.5023804,192.5674438,83.3017197,192.5674438z" fill="#19055b"/></g><g id="change1_91"><circle cx="80.606" cy="202.914" fill="#19055b" r="1.248"/></g><g id="change1_8"><circle cx="81.854" cy="221.902" fill="#19055b" r="1.248"/></g><g id="change1_26"><circle cx="83.527" cy="242.569" fill="#19055b" r="1.248"/></g><g id="change1_14"><circle cx="86.023" cy="263.804" fill="#19055b" r="1.248"/></g><g id="change1_11"><circle cx="87.271" cy="284.496" fill="#19055b" r="1.248"/></g><g id="change1_2"><path d="M37.3877373,324.1147766c-0.2745056,0-0.5451241-0.113678-0.7389793-0.3284302 C12.9454956,297.53479,1.685876,276.9667358,0.1403808,257.096344 c-1.6261467-20.9110565,11.0268965-47.9356079,30.0858994-64.2587738 c0.0179749-0.0155487,0.0398388-0.032547,0.0636463-0.0495605c0.5718479-0.5888519,1.1291199-1.0917053,1.7004814-1.5352936 c3.3261433-2.5789032,11.4180088-5.647049,17.7394276-7.8022919l6.3860397-8.589859 c0.1991997-0.2681885,0.5154877-0.4183197,0.8526688-0.3998566c0.3332939,0.0179749,0.6350098,0.2021027,0.8040848,0.4897308 c0.0408134,0.068512,4.2764702,7.0385437,13.7063751,7.9932404c0.3240585,0.0330353,0.6116867,0.2225189,0.7695847,0.5072327 l2.7703323,4.9877472l1.764122-4.639389c0.0709381-0.1865692,0.1967773-0.3478699,0.3605042-0.4625397 c1.2287216-0.858017,4.4985046-3.5734406,4.872612-5.8020477c0.0709305-0.4207458,0.4018021-0.7496643,0.8230362-0.817688 c0.4163742-0.0646057,0.8385773,0.1394501,1.0377731,0.5174408l4.2560654,8.0481415 c7.8484573,2.9622345,12.8400955,5.4740906,14.8418045,7.4694824c0.1117477,0.0869751,0.2181473,0.1715088,0.309494,0.2482758 c6.9005508,5.8185577,10.6265488,15.0599518,13.6198883,22.4857178c2.0692444,5.1330261,4.038887,9.9565582,5.8705444,9.8865967 c3.0322037-0.1559601,8.0223846-16.0768433,11.666275-27.7023163c0.1209869-0.3857574,0.463501-0.6597748,0.866272-0.6937866 c0.4018097-0.0369263,0.7817383,0.1768494,0.9668579,0.5344391c0.1520691,0.2871399,3.7935333,6.8388519,17.8103638,4.7049866 c0.3250275-0.0495605,0.6554108,0.0660706,0.8798676,0.3080292c0.2239838,0.2419586,0.313858,0.5796204,0.2390442,0.9012604 l-0.446991,1.9273682c-5.0815125,21.9342804-11.3946838,49.1774597-30.440567,49.1793976 c-0.1972504,0-0.3940201-0.0029144-0.5941925-0.0087433c-4.4129944-0.1292419-8.7662277-1.5590973-12.9678802-4.2555847 c0.120491,0.9644165,0.2468185,1.9317474,0.3794556,2.9029694c0.685051,5.0042877,1.9550629,9.9594879,3.1832962,14.7514496 c2.6717072,10.4234619,4.9790115,19.4253235-0.1685867,24.2765503 c-10.2111511,9.6223145-41.4572678,12.6200256-63.0665054,9.0723267 c1.3054848,1.7092285,2.5963936,3.4043579,3.8494072,5.0873413c0.048584,0.0656128,0.0957146,0.1375122,0.1423531,0.2098999 c0.2220345,0.3167725,0.294426,0.8167114,0.1005745,1.1514587c-5.2462311,9.0733032-13.8550415,14.404541-17.312851,16.2750854 C37.7113152,324.0758972,37.5490417,324.1147766,37.3877373,324.1147766z M31.4656887,194.3956909 C12.8784485,210.3515625,0.5455814,236.6385803,2.1246004,256.941864 c1.4973958,19.2562561,12.4450989,39.302002,35.4725418,64.9243774 c3.5695534-2.022583,10.8369255-6.8291321,15.5307426-14.5964355c-1.3914795-1.8647156-2.8266869-3.7430115-4.2754974-5.6387939 l-0.9080582-1.1884155c-0.2506981-0.3284302-0.2720757-0.777832-0.0539284-1.1291199 c0.2176628-0.3512573,0.6277199-0.532959,1.0358353-0.451355c21.1564293,4.1404419,53.6579781,1.4983826,63.8565025-8.1122437 c4.2939606-4.0457153,2.1217117-12.5204163-0.3940277-22.3336487c-1.2423248-4.8463745-2.5269165-9.8579407-3.2270279-14.9759064 c-0.2351532-1.7208862-0.450386-3.4315796-0.6491013-5.1291504c-0.0461578-0.3935394,0.1457596-0.777359,0.4887695-0.9760742 c0.3425217-0.1996765,0.7715302-0.1753845,1.0902481,0.0597687c4.4338913,3.2736664,9.0392761,5.0028076,13.6884003,5.1393433 c17.9089813,0.5009003,24.0671539-26.1767426,29.0374298-47.6305084l0.1219482-0.5252075 c-10.1781158,1.1937408-15.1061096-2.1343384-17.1724396-4.2900696 c-6.282074,19.9165344-9.2511063,27.0843048-12.8901443,27.2713623 c-3.2367401,0.1666412-5.1743164-4.5708923-7.8183289-11.1294098 c-2.9112244-7.2217102-6.5342178-16.2089996-13.0567856-21.7083588c-0.0864792-0.072876-0.1899643-0.1535339-0.2968521-0.2366028 c-0.0354691-0.0272217-0.0689926-0.0573425-0.1005707-0.0894012c-1.7427521-1.7728729-6.9005585-4.3240814-14.5240631-7.1833191 c-0.2278671-0.0855103-0.4163742-0.2516785-0.5300598-0.4669037l-3.4315796-6.4890442 c-1.3341446,2.2358856-3.7381439,4.1122589-4.5820694,4.7302551l-2.4185715,6.3598022 c-0.1374969,0.3619537-0.4722443,0.6112061-0.8584976,0.6389008c-0.3818817,0.0218506-0.7535553-0.1710205-0.9410934-0.5096588 l-3.5603256-6.4108276c-7.750309-0.9615021-12.1535873-5.5061493-13.866703-7.7119293l-5.7490845,7.7333069 c-0.120491,0.1622772-0.2876244,0.2837372-0.4790497,0.3483582c-8.9168434,3.0263824-14.952095,5.6509552-17.4532623,7.5904694 c-0.5203476,0.4037476-1.0319481,0.8686981-1.5634708,1.4225769c-0.0340099,0.0354614-0.0709343,0.0684967-0.1098022,0.0986176 C31.517189,194.3612061,31.4919243,194.3786926,31.4656887,194.3956909z M135.3903961,197.9681702h0.0097198H135.3903961z M28.3635235,264.0600586c-0.4683609,0-0.8755054-0.3279419-0.9731617-0.7894897 c-1.6664734-7.8858643-1.1859646-15.4860535,1.4697018-23.2358856c0.1549873-0.4528046,0.6112022-0.7297363,1.0853939-0.6617279 c0.4741917,0.0694885,0.8312931,0.4669037,0.8497543,0.9459534c0.1370106,3.5360413,0.1146622,6.8471222-0.0685043,10.1227264 l0,0c-0.2472992,4.4372864-0.8405247,8.9134369-1.3773899,12.76091 c-0.0665627,0.4785461-0.4678764,0.8400269-0.9508133,0.8570251 C28.3868446,264.0600586,28.3751831,264.0600586,28.3635235,264.0600586z M28.8231392,248.5434113 c-0.2866535,1.9842224-0.4226913,3.9684448-0.4081154,5.9614105c0.1345806-1.3832245,0.2468128-2.7819977,0.3245487-4.1739502 l0,0C28.7730961,249.7366638,28.8007889,249.1410065,28.8231392,248.5434113z" fill="#19055b"/></g><g id="change1_82"><path d="M48.7270355,300.8215637c-0.2997704,0-0.596138-0.1345825-0.791935-0.3911133 c-3.712883-4.8638611-7.3130455-9.6441345-10.5395889-14.6479492 c-5.3278542-8.2619019-8.5082397-15.4151001-10.0080662-22.5109558c-0.1136894-0.5378418,0.2302952-1.065979,0.7676468-1.179657 c0.5383244-0.1137085,1.0659599,0.2302856,1.1796494,0.7676392c1.4478378,6.8515015,4.5407734,13.7928467,9.7330723,21.8443909 c3.187191,4.9425659,6.761116,9.6878967,10.4492188,14.5187073c0.3332939,0.4367981,0.2497292,1.0615845-0.1870537,1.3948975 C49.1497269,300.7550049,48.9374123,300.8215637,48.7270355,300.8215637z" fill="#19055b"/></g><g id="change1_20"><path d="M29.7987289,241.3518372c-0.1068859,0-0.2157173-0.0174866-0.3226051-0.0544128 c-0.5198612-0.1778259-0.7967968-0.7438507-0.6184902-1.2637024c1.1082287-3.2348022,2.6226292-6.5279083,4.5019054-9.7870026 c0.9148598-1.5872803,1.938549-3.2046814,3.0428925-4.8070221c0.3119164-0.4528198,0.9318619-0.5669861,1.3837051-0.2545929 c0.4523277,0.3114319,0.5665016,0.9313812,0.2545853,1.3837128c-1.0737305,1.558609-2.0687561,3.1303406-2.9573784,4.6719513 c-1.8151436,3.1483154-3.2765884,6.3238525-4.3435192,9.4381561 C30.5984421,241.0919037,30.2121906,241.3518372,29.7987289,241.3518372z" fill="#19055b"/></g><g fill="#19055b" id="change1_21"><path d="M109.5002594,248.1957397c-0.5380554-4.5965271-0.9509277-9.0941162-1.2929916-13.4151459 c-0.3574066-4.5149841-0.6375122-8.837204-0.9023285-12.8781128l5.6249161,28.5128632L109.5002594,248.1957397z" fill="inherit"/><path d="M112.9299469,251.4104309c-0.1880264,0-0.3760452-0.0529633-0.5407486-0.1598511l-3.4296341-2.2198486 c-0.2487564-0.1608276-0.4129715-0.4246368-0.447464-0.7195587c-0.4809952-4.1064148-0.9051437-8.5062866-1.2967453-13.4517822 c-0.3425217-4.329422-0.6107101-8.4188385-0.8696747-12.3731842l-0.0340042-0.5184021 c-0.0340118-0.5232697,0.3439789-0.9838562,0.8638382-1.0518799c0.5237503-0.0602417,1.0042572,0.2798615,1.1053162,0.7943726 l5.6251984,28.5127106c0.0772476,0.3916016-0.0869675,0.7919312-0.4178391,1.0159149 C113.319603,251.3531036,113.1247787,251.4104309,112.9299469,251.4104309z M110.4346161,247.6149597l1.0644989,0.6889343 l-2.0221176-10.2500153C109.7728806,241.4674683,110.0891724,244.6221008,110.4346161,247.6149597z" fill="inherit"/></g><g id="change1_72"><path d="M118.7349091,229.9790039c-0.4722519,0-0.8915405-0.3371735-0.9780197-0.818161 c-0.0976563-0.5407562,0.2613907-1.0586853,0.8021393-1.1558533c5.7651215-1.0406952,7.4655991-6.551712,7.53508-6.7858887 c0.1564407-0.5256958,0.7088547-0.8293457,1.2350388-0.6724243c0.5266571,0.1549835,0.8283691,0.7049713,0.6748505,1.2316437 c-0.0821152,0.2822723-2.093544,6.921936-9.0912704,8.1846619 C118.8529739,229.9741516,118.7932129,229.9790039,118.7349091,229.9790039z" fill="#19055b"/></g><g id="change1_4"><path d="M91.6884995,157.4923248c-0.1248627,0-0.2507019-0.0233154-0.3711929-0.0719147 c-0.378479-0.1520691-0.6257782-0.52034-0.6238327-0.9284515l0.0500412-9.5231934 c-1.3375473-0.8618927-4.8745499-3.4704437-6.4841766-7.8435974c-1.0319519,1.6038055-2.9306641,3.2401581-6.4176178,3.6191254 c-2.5764771,0.2803345-7.715332,0.7282867-10.232048,0.8643188l-0.2302933,0.012146 c-3.6987877,0.1943512-7.325676,0.813324-7.5083542,5.9429474c-0.0233231,0.6471558-0.0310936,1.9021149-0.0228348,3.7303772 c0.0014572,0.3794403-0.2123184,0.7263489-0.5519295,0.8954163c-0.3391228,0.1681061-0.7452965,0.1297302-1.0474968-0.1005707 c-1.0693588-0.817688-2.3675575-1.2598114-3.7546654-1.2787628c-0.0296364-0.0004883-0.0592728-0.0004883-0.0884247-0.0004883 c-1.915226,0-3.7225952,0.8473358-4.8497734,2.2776794c-0.2613869,0.3328094-0.7049713,0.4639893-1.1048279,0.3255157 c-0.3998566-0.1374969-0.6695023-0.5125732-0.6719322-0.935257c-0.0272064-4.739975-0.0354691-10.7776642,0.0811386-12.6229248 c0.4440689-7.0341644,4.2031021-12.5937653,11.4923401-16.9965591 c2.9627266-1.7893906,10.5901146-5.7296524,17.4304237-3.6613846c3.4442062,1.0416718,6.1980209,3.4437256,8.1982727,7.1459198 c0.7555008-0.4426193,1.8671265-0.8657913,3.1920471-0.6938019c2.0930481,0.2759628,3.9849548,1.9259186,5.6237335,4.9037018 c2.8718719,5.2161102,0.7943726,21.4610596,0.704483,22.1499939c-0.0272064,0.2089233-0.1200027,0.4037476-0.265274,0.5563049 l-1.8263168,1.9234772C92.2185669,157.3844604,91.955719,157.4923248,91.6884995,157.4923248z M93.5148163,154.5738068h0.0097198 H93.5148163z M84.4847717,134.6300659c0.515007,0,0.9454651,0.390152,0.9911423,0.9041748 c0.5776749,6.5283966,6.6848373,9.9721069,6.7465363,10.0061188c0.318718,0.1758881,0.515976,0.5121002,0.5140305,0.8764801 l-0.0344925,6.5701752c0.5844803-5.3220215,1.2777863-15.9762726-0.6481247-19.474884c0,0,0,0,0-0.0004883 c-1.292366-2.347641-2.7173767-3.6914978-4.1214828-3.8868103c-1.4638748-0.2055206-2.5827942,0.9041595-2.5939636,0.9153442 c-0.2288361,0.2312622-0.5592194,0.3391113-0.8784256,0.2837372c-0.3201752-0.0549011-0.596138-0.2599335-0.7346039-0.5543671 c-1.7830811-3.7867279-4.3124237-6.1980133-7.5185623-7.1677704c-6.0741196-1.8374939-13.0907936,1.8078537-15.8251686,3.4597549 c-8.9105263,5.3822708-10.2801437,11.3771896-10.5352173,15.4185104 c-0.0777359,1.232605-0.108345,4.8347168-0.0879364,10.2441864c1.3715591-0.9226379,3.0501785-1.4264526,4.7628059-1.4041138 c1.174305,0.0165253,2.3019676,0.2657623,3.3344002,0.7307281c0.0019455-0.9338074,0.0106888-1.62323,0.0262375-2.058075 c0.2628441-7.3796082,6.6610298-7.7158051,9.3929787-7.8591461l0.2268906-0.012146 c2.4870758-0.1345673,7.5724869-0.5781555,10.1251526-0.8555756c5.5260849-0.6009979,5.8530655-5.0096283,5.8642349-5.1971588 c0.0310974-0.5203552,0.4581604-0.9308929,0.9789963-0.9386749 C84.4750519,134.6300659,84.4799118,134.6300659,84.4847717,134.6300659z" fill="#19055b"/></g><g id="change1_73"><path d="M31.1668892,273.0240479c-0.3609886,0-0.7093449-0.1967773-0.8857079-0.5397949 c-0.2380676-0.4630127-5.852087-11.4398804-7.8042412-20.5651398c-0.1146603-0.5373535,0.2278652-1.0659637,0.7652168-1.1811066 c0.537838-0.1151428,1.0659599,0.2273865,1.1811066,0.765213c1.8972511,8.8682709,7.5705452,19.9597931,7.6273918,20.0705414 c0.2516708,0.4887695,0.0592728,1.0888062-0.4294949,1.3399963 C31.4754047,272.9885864,31.3199329,273.0240479,31.1668892,273.0240479z" fill="#19055b"/></g><g id="change1_9"><path d="M72.9496765,278.1356812c-1.0460434,0-1.6771622-0.080658-1.7082596-0.085022 c-0.543663-0.0757751-0.922142-0.5776672-0.8473206-1.1213379c0.0748138-0.5431824,0.5776749-0.9245911,1.1208572-0.849762 c0.5951691,0.080658,14.6314316,1.8020325,20.6783447-13.8817444c0.1977463-0.5126038,0.772995-0.7676697,1.2865372-0.5704041 c0.5125732,0.1977539,0.7681351,0.773468,0.5703888,1.2865295 C88.7126541,276.7578125,77.2805557,278.1356812,72.9496765,278.1356812z" fill="#19055b"/></g></g><g id="change1_39"><path d="M437.3935547,60.2607079h-24.0414124c-0.6869812,0-1.2437744-0.5567856-1.2437744-1.243782 c0-0.6869926,0.5567932-1.2437782,1.2437744-1.2437782h24.0414124c0.6870117,0,1.2438049,0.5567856,1.2438049,1.2437782 C438.6373596,59.7039223,438.0805664,60.2607079,437.3935547,60.2607079z" fill="#19055b"/></g><g id="change1_10"><path d="M436.9961548,442.2608643h-24.0419006c-0.6870117,0-1.2438049-0.5567932-1.2438049-1.2437744 c0-0.6870117,0.5567932-1.2437744,1.2438049-1.2437744h24.0419006c0.6869812,0,1.2437744,0.5567627,1.2437744,1.2437744 C438.2399292,441.704071,437.683136,442.2608643,436.9961548,442.2608643z" fill="#19055b"/></g><g><g><g id="change4_12"><path d="M142.9864502,126.190834h-0.0000458c-10.2774048,0-18.6088943-8.3314819-18.6088943-18.608902v-7.4133224 h37.2178421v7.4133301C161.5953522,117.8593521,153.263855,126.190834,142.9864502,126.190834z" fill="#ec8f3c"/></g><g id="change1_63"><path d="M142.9862061,127.4346008c-10.9467316,0-19.8523941-8.9061508-19.8523941-19.8528824v-7.4131241 c0-0.6869965,0.5567856-1.243782,1.243782-1.243782h37.2177124c0.6869965,0,1.2437897,0.5567856,1.2437897,1.243782v7.4131241 C162.8390961,118.52845,153.9329376,127.4346008,142.9862061,127.4346008z M125.621376,101.4123688v6.1693497 c0,9.5751724,7.7896652,17.3653259,17.36483,17.3653259c9.5751801,0,17.3653259-7.7901535,17.3653259-17.3653259v-6.1693497 H125.621376z" fill="#19055b"/></g></g><g><g id="change5_5"><path d="M180.2042847,126.190834h-0.0000305c-10.27742,0-18.608902-8.3314819-18.608902-18.608902v-7.4133224 h37.2178345v7.4133224C198.8131866,117.8593521,190.4817047,126.190834,180.2042847,126.190834z" fill="#f6bd3b"/></g><g id="change1_40"><path d="M180.204422,127.4346008c-10.9467316,0-19.85289-8.9061508-19.85289-19.8528824v-7.4131241 c0-0.6869965,0.5567932-1.243782,1.2437744-1.243782h37.2177277c0.6869965,0,1.2437744,0.5567856,1.2437744,1.243782v7.4131241 C200.0568085,118.52845,191.1511536,127.4346008,180.204422,127.4346008z M162.8390961,101.4123688v6.1693497 c0,9.5751724,7.7901459,17.3653259,17.3653259,17.3653259c9.5751648,0,17.3648376-7.7901535,17.3648376-17.3653259v-6.1693497 H162.8390961z" fill="#19055b"/></g></g><g><g id="change4_4"><path d="M217.4221344,126.190834h-0.0000458c-10.2774048,0-18.608902-8.3314819-18.608902-18.608902v-7.4133224 h37.2178497v7.4133224C236.0310364,117.8593521,227.6995392,126.190834,217.4221344,126.190834z" fill="#ec8f3c"/></g><g id="change1_56"><path d="M217.4221344,127.4346008c-10.9467316,0-19.8528748-8.9061508-19.8528748-19.8528824v-7.4131241 c0-0.6869965,0.556778-1.243782,1.2437744-1.243782h37.2182007c0.6869965,0,1.2437897,0.5567856,1.2437897,1.243782v7.4131241 C237.2750244,118.52845,228.368866,127.4346008,217.4221344,127.4346008z M200.0568085,101.4123688v6.1693497 c0,9.5751724,7.7901611,17.3653259,17.3653259,17.3653259c9.5751801,0,17.3653259-7.7901535,17.3653259-17.3653259v-6.1693497 H200.0568085z" fill="#19055b"/></g></g><g><g id="change5_16"><path d="M254.6399689,126.190834h-0.0000305c-10.27742,0-18.608902-8.3314819-18.608902-18.608902v-7.4133224 h37.2178345v7.4133224C273.2488708,117.8593521,264.9173889,126.190834,254.6399689,126.190834z" fill="#f6bd3b"/></g><g id="change1_30"><path d="M254.6398621,127.4346008c-10.9467316,0-19.8524017-8.9061508-19.8524017-19.8528824v-7.4131241 c0-0.6869965,0.556778-1.243782,1.2437744-1.243782h37.2177277c0.6869812,0,1.2437744,0.5567856,1.2437744,1.243782v7.4131241 C274.4927368,118.52845,265.5865784,127.4346008,254.6398621,127.4346008z M237.2750244,101.4123688v6.1693497 c0,9.5751724,7.7896576,17.3653259,17.3648376,17.3653259c9.5751648,0,17.3653259-7.7901535,17.3653259-17.3653259v-6.1693497 H237.2750244z" fill="#19055b"/></g></g><g><g id="change4_8"><path d="M291.8578186,126.190834h-0.0000305c-10.2774353,0-18.6089172-8.3314819-18.6089172-18.608902v-7.4133224 h37.2178345v7.4133224C310.4667053,117.8593521,302.1352234,126.190834,291.8578186,126.190834z" fill="#ec8f3c"/></g><g id="change1_38"><path d="M291.8575745,127.4346008c-10.9467163,0-19.8523865-8.9061508-19.8523865-19.8528824v-7.4131241 c0-0.6869965,0.5567627-1.243782,1.2437744-1.243782h37.2177124c0.6870117,0,1.2437744,0.5567856,1.2437744,1.243782v7.4131241 C311.7104492,118.52845,302.8043213,127.4346008,291.8575745,127.4346008z M274.4927368,101.4123688v6.1693497 c0,9.5751724,7.7896729,17.3653259,17.3648376,17.3653259s17.3653259-7.7901535,17.3653259-17.3653259v-6.1693497H274.4927368z" fill="#19055b"/></g></g><g><g id="change5_17"><path d="M329.0756531,126.190834h-0.0000305c-10.2774353,0-18.6089172-8.3314819-18.6089172-18.608902v-7.4133224 h37.2178345v7.4133224C347.6845398,117.8593521,339.3530579,126.190834,329.0756531,126.190834z" fill="#f6bd3b"/></g><g id="change1_31"><path d="M329.0757751,127.4346008c-10.9467163,0-19.8528748-8.9061508-19.8528748-19.8528824v-7.4131241 c0-0.6869965,0.5567932-1.243782,1.2437744-1.243782h37.2177124c0.6870117,0,1.2438049,0.5567856,1.2438049,1.243782v7.4131241 C348.9281921,118.52845,340.022522,127.4346008,329.0757751,127.4346008z M311.7104492,101.4123688v6.1693497 c0,9.5751724,7.7901611,17.3653259,17.3653259,17.3653259s17.3648376-7.7901535,17.3648376-17.3653259v-6.1693497H311.7104492z" fill="#19055b"/></g></g><g><g id="change4_9"><path d="M366.2934875,126.190834h-0.0000305c-10.2774048,0-18.6089172-8.3314819-18.6089172-18.608902v-7.4133224 h37.217865v7.4133224C384.9024048,117.8593521,376.5708923,126.190834,366.2934875,126.190834z" fill="#ec8f3c"/></g><g id="change1_60"><path d="M366.2934875,127.4346008c-10.9467163,0-19.8528748-8.9061508-19.8528748-19.8528824v-7.4131241 c0-0.6869965,0.5567932-1.243782,1.2437744-1.243782h37.2182312c0.6869812,0,1.2437744,0.5567856,1.2437744,1.243782v7.4131241 C386.1463928,118.52845,377.2402344,127.4346008,366.2934875,127.4346008z M348.9281921,101.4123688v6.1693497 c0,9.5751724,7.7901306,17.3653259,17.3652954,17.3653259c9.5751953,0,17.3653259-7.7901535,17.3653259-17.3653259v-6.1693497 H348.9281921z" fill="#19055b"/></g></g></g><g><g id="change5_9"><path d="M413.3521118 59.0171165L152.8204803 59.0171165 124.3775787 100.1684418 384.9022522 100.1684418z" fill="#f6bd3b"/></g><g id="change1_65"><path d="M384.9021301,101.4123688H124.377594c-0.462532,0-0.8866806-0.2565231-1.1014252-0.6660995 c-0.2147522-0.4095764-0.1846237-0.9046555,0.0782166-1.28508l28.442749-41.1516609 c0.2322388-0.3357239,0.6146088-0.5363808,1.0232086-0.5363808h260.5317993c0.4625549,0,0.8866882,0.2565269,1.1014404,0.6661034 c0.2147522,0.4095726,0.1846313,0.9046555-0.0782166,1.2850761l-28.4500427,41.1516647 C385.6930847,101.2117157,385.31073,101.4123688,384.9021301,101.4123688z M126.7490387,98.9248123h257.5010376 l26.7301331-38.6641045H153.4723511L126.7490387,98.9248123z" fill="#19055b"/></g></g><g><g id="change4_14"><path d="M189.9037476 59.0170784L161.4607544 100.1684341 198.8132935 100.1684341 227.2560425 59.0170784z" fill="#ec8f3c"/></g><g id="change1_47"><path d="M198.8135223,101.4123688h-37.3527832c-0.4625397,0-0.8866882-0.2565231-1.1014404-0.6660995 c-0.2147369-0.4095764-0.1846161-0.9046555,0.0782318-1.28508l28.4432373-41.1516609 c0.2322235-0.3357239,0.6145935-0.5363808,1.0231934-0.5363808h37.3523102c0.4625244,0,0.886673,0.2565269,1.1014252,0.6661034 c0.2147369,0.4095726,0.1846161,0.9046555-0.0782318,1.2850761l-28.4427338,41.1516647 C199.6044922,101.2117157,199.2221222,101.4123688,198.8135223,101.4123688z M163.8321686,98.9248123h34.3288574 l26.7238007-38.6641045h-34.3283691L163.8321686,98.9248123z" fill="#19055b"/></g></g><g><g id="change5_6"><path d="M227.2560425 59.0170784L198.8132935 100.1684341 236.1655884 100.1684341 264.6083374 59.0170784z" fill="#f6bd3b"/></g><g id="change1_22"><path d="M236.1658173,101.4123688h-37.3522949c-0.4625397,0-0.8866882-0.2565231-1.1014252-0.6660995 c-0.2147522-0.4095764-0.1846313-0.9046555,0.0782166-1.28508l28.442749-41.1516609 c0.2322388-0.3357239,0.6146088-0.5363808,1.0232086-0.5363808h37.3523102c0.4625244,0,0.8866577,0.2565269,1.1014099,0.6661034 c0.2147522,0.4095726,0.1846313,0.9046555-0.0782166,1.2850761l-28.442749,41.1516647 C236.9567871,101.2117157,236.5744171,101.4123688,236.1658173,101.4123688z M201.184967,98.9248123h34.3283539 l26.7238007-38.6641045h-34.3283539L201.184967,98.9248123z" fill="#19055b"/></g></g><g><g id="change4_10"><path d="M264.6083374 59.0170784L236.1655884 100.1684341 273.5178833 100.1684341 301.9608765 59.0170784z" fill="#ec8f3c"/></g><g id="change1_80"><path d="M273.5181274,101.4123688h-37.3523102c-0.4625244,0-0.886673-0.2565231-1.1014252-0.6660995 s-0.1846161-0.9046555,0.0782166-1.28508l28.442749-41.1516609c0.2322388-0.3357239,0.6145935-0.5363808,1.0232239-0.5363808 h37.3522949c0.4625244,0,0.8866577,0.2565269,1.1014099,0.6661034c0.2147522,0.4095726,0.1846313,0.9046555-0.0782166,1.2850761 l-28.442749,41.1516647C274.309082,101.2117157,273.9267273,101.4123688,273.5181274,101.4123688z M238.537262,98.9248123 h34.3283691l26.7237854-38.6641045h-34.3283386L238.537262,98.9248123z" fill="#19055b"/></g></g><g><g id="change5_7"><path d="M301.9608765 59.0170784L273.5178833 100.1684341 310.8702087 100.1684341 339.3132019 59.0170784z" fill="#f6bd3b"/></g><g id="change1_85"><path d="M310.8704224,101.4123688h-37.3522949c-0.4625244,0-0.8866882-0.2565231-1.1014404-0.6660995 s-0.1846313-0.9046555,0.0782166-1.28508l28.442749-41.1516609c0.2322388-0.3357239,0.614624-0.5363808,1.0232239-0.5363808 h37.3522949c0.4625244,0,0.8866882,0.2565269,1.1014099,0.6661034c0.2147522,0.4095726,0.1846313,0.9046555-0.0782166,1.2850761 l-28.442749,41.1516647C311.661377,101.2117157,311.2790222,101.4123688,310.8704224,101.4123688z M275.8895569,98.9248123 h34.3283691l26.7237854-38.6641045h-34.3283386L275.8895569,98.9248123z" fill="#19055b"/></g></g><g><g id="change4_7"><path d="M339.3132019 59.0170784L310.8702087 100.1684341 348.2225037 100.1684341 376.6654968 59.0170784z" fill="#ec8f3c"/></g><g id="change1_15"><path d="M348.2227173,101.4123688h-37.3522949c-0.4625244,0-0.8866882-0.2565231-1.1014404-0.6660995 c-0.2147217-0.4095764-0.1846008-0.9046555,0.0782471-1.28508l28.442749-41.1516609 c0.2322388-0.3357239,0.6145935-0.5363808,1.0231934-0.5363808h37.3522949c0.4625244,0,0.8866882,0.2565269,1.1014404,0.6661034 c0.2147217,0.4095726,0.1846008,0.9046555-0.0782471,1.2850761l-28.4427185,41.1516647 C349.0137024,101.2117157,348.6313171,101.4123688,348.2227173,101.4123688z M313.2418518,98.9248123h34.3283691 l26.7238159-38.6641045h-34.3283691L313.2418518,98.9248123z" fill="#19055b"/></g></g><g><g id="change4_11"><path d="M228.9912415,385.9996948c-6.1722565,0-11.1940308-5.021759-11.1940308-11.1940308v-27.8606873 c0-6.1722717,5.0217743-11.1940308,11.1940308-11.1940308h105.4405823c6.1722412,0,11.1940308,5.021759,11.1940308,11.1940308 v27.8606873c0,6.1722717-5.0217896,11.1940308-11.1940308,11.1940308H228.9912415z" fill="#ec8f3c"/></g><g id="change1_25"><path d="M334.4318237,336.9947205c5.4954529,0,9.9502258,4.4547729,9.9502258,9.9502563v27.8606873 c0,5.4953308-4.4547729,9.9502563-9.9502258,9.9502563H228.9914856c-5.4954681,0-9.9502411-4.4549255-9.9502411-9.9502563 v-27.8606873c0-5.4954834,4.4547729-9.9502563,9.9502411-9.9502563H334.4318237 M334.4318237,334.5071411H228.9914856 c-6.8582916,0-12.4378052,5.5795288-12.4378052,12.4378357v27.8606873c0,6.8582764,5.5795135,12.4378052,12.4378052,12.4378052 h105.4403381c6.8582764,0,12.4378052-5.5795288,12.4378052-12.4378052v-27.8606873 C346.8696289,340.0866699,341.2901001,334.5071411,334.4318237,334.5071411L334.4318237,334.5071411z" fill="#19055b"/></g></g><g><g><g id="change3_2"><path d="M207.1998138,280.5576477c-5.0752106,0-9.2039795-4.1287537-9.2039795-9.2039795v-89.2427368 c0-5.0752106,4.1287689-9.2039795,9.2039795-9.2039795h154.8531647c5.0752258,0,9.2039795,4.1287689,9.2039795,9.2039795 v89.2427368c0,5.0752258-4.1287537,9.2039795-9.2039795,9.2039795H207.1998138z" fill="#7bc9c0"/></g><g id="change1_29"><path d="M362.0529785,174.1507874c4.3962402,0,7.9602051,3.5639038,7.9602051,7.9602051v89.2428589 c0,4.3963013-3.5639648,7.9602051-7.9602051,7.9602051H207.200058c-4.3964844,0-7.9602051-3.5639038-7.9602051-7.9602051 v-89.2428589c0-4.3963013,3.5637207-7.9602051,7.9602051-7.9602051H362.0529785 M362.0529785,171.6632233H207.200058 c-5.7610016,0-10.4477692,4.6868439-10.4477692,10.4477692v89.2428589c0,5.7609558,4.6867676,10.4477844,10.4477692,10.4477844 h154.8529205c5.7609863,0,10.4477539-4.6868286,10.4477539-10.4477844v-89.2428589 C372.5007324,176.3500671,367.8139648,171.6632233,362.0529785,171.6632233L362.0529785,171.6632233z" fill="#19055b"/></g></g><g><g id="change4_3"><circle cx="235.098" cy="256.03" fill="#ec8f3c" r="8.635"/></g><g id="change1_54"><path d="M235.0984039,265.9082642c-5.4468842,0-9.8783417-4.4314575-9.8783417-9.8783569 c0-5.4468842,4.4314575-9.8783417,9.8783417-9.8783417s9.8783417,4.4314575,9.8783417,9.8783417 C244.9767456,261.4768066,240.5452881,265.9082642,235.0984039,265.9082642z M235.0984039,248.6391296 c-4.0753326,0-7.3907776,3.3154602-7.3907776,7.3907776s3.3154449,7.3907776,7.3907776,7.3907776 s7.3907776-3.3154602,7.3907776-7.3907776S239.1737366,248.6391296,235.0984039,248.6391296z" fill="#19055b"/></g></g><g id="change1_61"><path d="M351.8151245,257.2736816h-58.5174866c-0.6869812,0-1.2437744-0.5567627-1.2437744-1.2437744 c0-0.6869965,0.5567932-1.2437744,1.2437744-1.2437744h58.5174866c0.6869812,0,1.2437744,0.556778,1.2437744,1.2437744 C353.0588989,256.7169189,352.5021057,257.2736816,351.8151245,257.2736816z" fill="#19055b"/></g><g id="change1_87"><path d="M243.6076202,231.8082428h-29.2502441c-0.6869965,0-1.2437744-0.556778-1.2437744-1.2437744 s0.556778-1.2437897,1.2437744-1.2437897h29.2502441c0.6869965,0,1.2437744,0.5567932,1.2437744,1.2437897 S244.2946167,231.8082428,243.6076202,231.8082428z" fill="#19055b"/></g><g id="change1_44"><path d="M279.6767883,231.8082428h-29.2502441c-0.6869965,0-1.2437744-0.556778-1.2437744-1.2437744 s0.556778-1.2437897,1.2437744-1.2437897h29.2502441c0.6869812,0,1.2437744,0.5567932,1.2437744,1.2437897 S280.3637695,231.8082428,279.6767883,231.8082428z" fill="#19055b"/></g><g id="change1_52"><path d="M315.7459412,231.8082428h-29.2502136c-0.6870117,0-1.2438049-0.556778-1.2438049-1.2437744 s0.5567932-1.2437897,1.2438049-1.2437897h29.2502136c0.6870117,0,1.2437744,0.5567932,1.2437744,1.2437897 S316.4329529,231.8082428,315.7459412,231.8082428z" fill="#19055b"/></g><g id="change1_74"><path d="M351.8151245,231.8082428h-29.2502441c-0.6869812,0-1.2437744-0.556778-1.2437744-1.2437744 s0.5567932-1.2437897,1.2437744-1.2437897h29.2502441c0.6869812,0,1.2437744,0.5567932,1.2437744,1.2437897 S352.5021057,231.8082428,351.8151245,231.8082428z" fill="#19055b"/></g><g><g id="change2_3"><path d="M346.8151855,215.3887482h-19.2588806c-2.7614441,0-5-2.2385712-5-5V198.907547c0-2.7614288,2.2385559-5,5-5 h19.2588806c2.7614136,0,5,2.2385712,5,5v11.4812012C351.8151855,213.150177,349.5765991,215.3887482,346.8151855,215.3887482z" fill="#fff"/></g><g id="change1_32"><path d="M346.8399963,216.6326599H327.53125c-3.4291382,0-6.2189026-2.7897644-6.2189026-6.2189026v-11.5312195 c0-3.4291382,2.7897644-6.2189026,6.2189026-6.2189026h19.3087463c3.4291382,0,6.2189026,2.7897644,6.2189026,6.2189026 v11.5312195C353.0588989,213.8428955,350.2691345,216.6326599,346.8399963,216.6326599z M327.53125,195.1511993 c-2.0575867,0-3.7313232,1.6737518-3.7313232,3.7313385v11.5312195c0,2.0575714,1.6737366,3.7313385,3.7313232,3.7313385 h19.3087463c2.0575867,0,3.7313232-1.6737671,3.7313232-3.7313385v-11.5312195 c0-2.0575867-1.6737366-3.7313385-3.7313232-3.7313385H327.53125z" fill="#19055b"/></g></g><g id="change1_42"><path d="M281.7115173,190.0444031h-67.3541412c-0.6869965,0-1.2437744-0.556778-1.2437744-1.2437744 s0.556778-1.2437897,1.2437744-1.2437897h67.3541412c0.6870117,0,1.2438049,0.5567932,1.2438049,1.2437897 S282.3985291,190.0444031,281.7115173,190.0444031z" fill="#19055b"/></g><g><g id="change5_8"><circle cx="222.992" cy="256.03" fill="#f6bd3b" r="8.635"/></g><g id="change1_64"><path d="M222.9919434,265.9082642c-5.4468842,0-9.8783417-4.4314575-9.8783417-9.8783569 c0-5.4468842,4.4314575-9.8783417,9.8783417-9.8783417s9.8783417,4.4314575,9.8783417,9.8783417 C232.870285,261.4768066,228.4388275,265.9082642,222.9919434,265.9082642z M222.9919434,248.6391296 c-4.0753326,0-7.3907776,3.3154602-7.3907776,7.3907776s3.3154449,7.3907776,7.3907776,7.3907776 s7.3907776-3.3154602,7.3907776-7.3907776S227.067276,248.6391296,222.9919434,248.6391296z" fill="#19055b"/></g></g><g><g id="change2_8"><path d="M209.6990356,200.7613373c-11.1575928,0-20.2347717-9.077179-20.2347717-20.2347717 s9.077179-20.2347565,20.2347717-20.2347565c11.1571045,0,20.2342682,9.0771637,20.2342682,20.2347565 S220.8561401,200.7613373,209.6990356,200.7613373z" fill="#fff"/></g><g id="change1_62"><path d="M209.6987915,161.5357056c10.488327,0,18.9907379,8.5024719,18.9907379,18.990799 s-8.5024109,18.990799-18.9907379,18.990799s-18.9907379-8.5024719-18.9907379-18.990799 S199.2104645,161.5357056,209.6987915,161.5357056 M209.6987915,159.0481415 c-11.8431244,0-21.478302,9.6351776-21.478302,21.478363s9.6351776,21.478363,21.478302,21.478363 s21.478302-9.6351776,21.478302-21.478363S221.5419159,159.0481415,209.6987915,159.0481415L209.6987915,159.0481415z" fill="#19055b"/></g></g><g><g><g id="change5_10"><path d="M208.1783142,189.912735c-0.7049713,0-1.3676758-0.2745056-1.8661499-0.773468l-7.2523193-7.2523193 c-0.4984894-0.4984741-0.772995-1.1611786-0.772995-1.8661499s0.2745056-1.3676758,0.772995-1.8661652 c0.4984894-0.4984741,1.1611938-0.773468,1.8661652-0.773468s1.3676605,0.2749939,1.8661499,0.773468l5.3861542,5.3861542 l8.4271088-8.4275818c0.4984741-0.4984894,1.1611786-0.772995,1.8661499-0.772995s1.3676758,0.2745056,1.8661652,0.772995 c1.0290375,1.0290375,1.0290375,2.7032776,0,3.7323151l-10.2932587,10.2937469 C209.5445251,189.6382294,208.882309,189.912735,208.1783142,189.912735z" fill="#f6bd3b"/></g><g id="change1_36"><path d="M218.471817,175.5838776c0.3571014,0,0.7139587,0.1363373,0.9867706,0.408905 c0.5451202,0.5451813,0.5451202,1.4283447,0,1.973526l-10.2937469,10.2936249 c-0.2725677,0.2725677-0.6296692,0.408844-0.9867706,0.408844s-0.7142029-0.1362762-0.9867554-0.408844l-7.2523193-7.2522583 c-0.5451202-0.5451202-0.5451202-1.4283447,0-1.973526c0.2728119-0.2725677,0.6296692-0.408905,0.9867706-0.408905 s0.7142029,0.1363373,0.9867554,0.408905l6.2655487,6.2654877l9.3069763-9.3068542 C217.7576141,175.7202148,218.1147156,175.5838776,218.471817,175.5838776 M218.471817,173.0963135 c-1.0372925,0-2.0123901,0.4039764-2.7457886,1.137619l-7.5479584,7.5477753l-4.5065155-4.5065308 c-0.7333984-0.7334442-1.7084961-1.1374969-2.7457886-1.1374969c-1.0368195,0-2.0119171,0.4038696-2.7455597,1.137207 c-1.5141602,1.514389-1.5141602,3.9778442-0.0002441,5.4917603l7.2523193,7.2522583 c0.7336426,0.7335052,1.7087402,1.1374359,2.7457886,1.1374359s2.0121613-0.4039307,2.7457886-1.1373749l10.2937469-10.2936859 c1.513916-1.5140381,1.513916-3.9774323,0-5.4914093C220.4837341,173.5001678,219.5086212,173.0963135,218.471817,173.0963135 L218.471817,173.0963135z" fill="#19055b"/></g></g></g></g><g><g><g id="change5_11"><path d="M239.4934235,375.6952515c-0.6869965,0-1.2437897-0.5567932-1.2437897-1.2437744v-27.1523132 c0-0.6870117,0.5567932-1.2438049,1.2437897-1.2438049h11.1707001c2.5759888,0,4.5762482,0.1496582,6.1149292,0.4571838 c1.5950623,0.3192139,2.9617615,0.8482971,4.0617371,1.5727234c1.4425049,0.9750977,2.5264282,2.197998,3.2352905,3.6434021 c0.6957397,1.4191589,1.0484619,3.1040955,1.0484619,5.0081482c0,3.3888245-1.0440979,6.0473938-3.1026611,7.9014282 c-2.0211487,1.8204651-4.9124451,2.7435913-8.5927734,2.7435913h-3.9728088v7.0696411 c0,0.6869812-0.556778,1.2437744-1.2437744,1.2437744H239.4934235z M251.0144348,358.2580261 c2.1848755,0,2.8213348-0.3080444,2.9646606-0.402771c0.2409821-0.1588745,0.3629303-0.5349121,0.3629303-1.1184387 c0-0.4163818-0.0597534-0.9537354-0.3459167-1.1504822c-0.0942688-0.0646362-0.6831207-0.3891907-2.9816742-0.3891907h-1.558136 v3.0608826H251.0144348z" fill="#f6bd3b"/></g><g id="change1_77"><path d="M250.6641235,347.2990417c2.4700775,0,4.4270935,0.1444092,5.8710327,0.4332581 c1.4439697,0.2886963,2.6513062,0.7526855,3.6220398,1.3917236c1.253479,0.8479309,2.1875305,1.8985596,2.8019104,3.1520691 c0.6145935,1.2535095,0.9216614,2.740448,0.9216614,4.4608459c0,3.0353699-0.8971252,5.3610229-2.6911316,6.9770813 c-1.7942505,1.6159363-4.3811646,2.4240417-7.7605286,2.4240417h-5.2165833v8.3134155h-8.719101v-27.1524353H250.6641235 M248.2125244,359.5019226h2.8019104c1.8185425,0,3.0353546-0.2027283,3.6497192-0.6082764 c0.6143494-0.4054565,0.9216614-1.1243896,0.9216614-2.1567078c0-1.0445862-0.2949219-1.7695923-0.8847351-2.1751404 c-0.5900726-0.4054565-1.8187866-0.6083069-3.6866455-0.6083069h-2.8019104V359.5019226 M250.6641235,344.8114624h-11.1707001 c-1.3737488,0-2.4875641,1.1137085-2.4875641,2.4875793v27.1524353c0,1.3738708,1.1138153,2.4875488,2.4875641,2.4875488 h8.719101c1.3737488,0,2.4875641-1.113678,2.4875641-2.4875488v-5.8258667h2.7290192 c3.997345,0,7.1685181-1.0306091,9.425293-3.0631714c2.331604-2.1004639,3.513916-5.0697327,3.513916-8.8255005 c0-2.0955811-0.3954773-3.9649048-1.1757507-5.5559387c-0.8045654-1.6417236-2.0299072-3.0271301-3.6416931-4.1173706 c-1.2608032-0.8303223-2.7756958-1.4202576-4.5279236-1.7706909 C255.4031372,344.9689941,253.3229523,344.8114624,250.6641235,344.8114624L250.6641235,344.8114624z M250.7000885,356.4410706 h0.3143463c1.125473,0,1.7558594,0.0824585,2.0799255,0.1482849c0.0024261,0.0427551,0.003891,0.0918274,0.003891,0.147583 c0,0.044342-0.0009766,0.0838013-0.0029144,0.1188049c-0.3111877,0.068634-0.9374542,0.1586304-2.0809021,0.1586304h-0.3143463 V356.4410706L250.7000885,356.4410706z" fill="#19055b"/></g></g><g><g id="change5_12"><path d="M286.9242249,375.6952515c-0.5567627,0-1.0460205-0.3702087-1.1971436-0.9060974l-0.7583923-2.6882324 h-6.7713318l-0.7895203,2.6994019c-0.1549683,0.5305481-0.6412964,0.894928-1.1937256,0.894928h-8.5714111 c-0.4032593,0-0.7817383-0.1958008-1.0149231-0.5247192c-0.2332153-0.3294067-0.2919922-0.7511292-0.1583862-1.1315613 l9.5484314-27.1523132c0.1749268-0.4979858,0.6456909-0.8312988,1.1733398-0.8312988h8.8298645 c0.5276489,0,0.9984436,0.333313,1.1733398,0.8312988l9.5484619,27.1523132 c0.133606,0.3804321,0.0747986,0.8021545-0.1583862,1.1315613c-0.2332153,0.3289185-0.6116943,0.5247192-1.0149536,0.5247192 H286.9242249z M282.6720581,363.9172363l-1.0688782-3.7085266l-1.0907288,3.7085266H282.6720581z" fill="#f6bd3b"/></g><g id="change1_69"><path d="M286.0207825,347.2990417l9.5484619,27.1524353h-8.6452637l-1.0137329-3.594574h-8.6452332 l-1.0506592,3.594574h-8.5716553l9.5484619-27.1524353H286.0207825 M278.8503418,365.1610107h5.4745789l-2.7095947-9.401001 L278.8503418,365.1610107 M286.0207825,344.8114624h-8.8296204c-1.0557556,0-1.9963684,0.6663513-2.3466797,1.6623535 l-9.5484314,27.1524353c-0.2677002,0.7610779-0.1496582,1.6047668,0.3167725,2.263092s1.2231445,1.0496826,2.0298767,1.0496826 h8.5716553c1.105072,0,2.0777588-0.7290039,2.3877258-1.7896118l0.5273743-1.8049622h4.897644l0.5026245,1.7822266 c0.3024292,1.0719299,1.2804565,1.8123474,2.3942566,1.8123474h8.6452637c0.8067627,0,1.5634766-0.3913574,2.0298767-1.0496826 c0.4664307-0.6583252,0.5845032-1.5020142,0.3167725-2.263092l-9.5484314-27.1524353 C288.0171509,345.4778137,287.0765381,344.8114624,286.0207825,344.8114624L286.0207825,344.8114624z" fill="#19055b"/></g></g><g><g id="change5_13"><path d="M305.4595032,375.6952515c-0.6870117,0-1.2438049-0.5567932-1.2438049-1.2437744v-9.7097473 l-9.8210144-16.8153381c-0.2244568-0.3847961-0.2264099-0.8599548-0.004364-1.2462158 c0.2215576-0.3867493,0.6330566-0.6248169,1.0785828-0.6248169h9.6587524c0.4688416,0,0.8978577,0.2638245,1.1096802,0.6821594 l3.5768433,7.0691223l3.6064758-7.0725403c0.2127991-0.4163818,0.6408386-0.6787415,1.1082458-0.6787415h9.4012146 c0.4431152,0,0.8526917,0.2356567,1.0756836,0.618988c0.2225342,0.3833313,0.2244568,0.8555908,0.0048523,1.2408752 l-9.5882874,16.8192139v9.717041c0,0.6869812-0.5567932,1.2437744-1.2437744,1.2437744H305.4595032z" fill="#f6bd3b"/></g><g id="change1_70"><path d="M323.9298706,347.2990417l-9.7512817,17.1062317v10.0462036h-8.7188721v-10.0462036l-9.9910583-17.1062317 h9.6592407l4.6819153,9.2536316l4.7190857-9.2536316H323.9298706 M323.9298706,344.8114624h-9.4009705 c-0.9350281,0-1.7911072,0.524353-2.2159729,1.3574829l-2.4943848,4.8910522l-2.4710388-4.8840027 c-0.4234009-0.8368835-1.2816772-1.3645325-2.2196045-1.3645325h-9.6592407 c-0.8910522,0-1.7138367,0.4765015-2.1574097,1.2492371c-0.443573,0.772644-0.4399414,1.7235718,0.0094604,2.4929199 l9.6514587,16.5249329v9.3729248c0,1.3738708,1.1138306,2.4875488,2.4875488,2.4875488h8.7188721 c1.3737488,0,2.4875488-1.113678,2.4875488-2.4875488v-9.3870239l9.4248047-16.5335388 c0.4389648-0.7699585,0.4350891-1.7153015-0.0101929-2.4816284 C325.6354675,345.2829895,324.8160706,344.8114624,323.9298706,344.8114624L323.9298706,344.8114624z M323.9298706,349.7865906 h0.0048828H323.9298706L323.9298706,349.7865906z" fill="#19055b"/></g></g></g></g></svg>